<?xml version="1.0" encoding="utf-8"?>
<!-- Generator: Adobe Illustrator 26.0.0, SVG Export Plug-In . SVG Version: 6.00 Build 0)  -->
<svg version="1.1" xmlns="http://www.w3.org/2000/svg" xmlns:xlink="http://www.w3.org/1999/xlink" x="0px" y="0px"
	 viewBox="0 0 418.2 278.2" style="enable-background:new 0 0 418.2 278.2;" xml:space="preserve">
<style type="text/css">
	.st0{display:none;}
	.st1{display:inline;fill:#1D3D70;}
	.st2{fill:#FFFFFE;}
	.st3{fill:none;}
	.st4{display:none;fill:#FFFFFF;}
	.st5{display:inline;fill:none;}
	.st6{fill:#FFFFFF;}
	.st7{fill:#4173B5;}
	.st8{display:none;fill:none;}
	.st9{fill:url(#SVGID_00000123421295730977714120000013534194686575429294_);}
	.st10{fill:url(#SVGID_00000167393302458729457680000001805707922504736423_);}
	.st11{fill:url(#SVGID_00000061458027064443664150000010692470457823583889_);}
	.st12{fill:url(#SVGID_00000033354252972957354000000012487743082981557658_);}
	.st13{fill:url(#SVGID_00000155113198154620914660000004776628217895734959_);}
	.st14{fill:url(#SVGID_00000111870430812969777310000003946239335783407773_);}
	.st15{fill:#386EAF;}
	.st16{fill:url(#SVGID_00000126284521091832571340000001270705761274841497_);}
	.st17{fill:url(#SVGID_00000030487780210634384120000003159123226357476505_);}
	.st18{fill:url(#SVGID_00000152986158747933012020000004053853526812798877_);}
	
		.st19{clip-path:url(#SVGID_00000145035207259974218370000017691674360928376207_);fill:url(#SVGID_00000106120016135492214910000012297027405818879123_);}
	.st20{fill:url(#SVGID_00000137101578263721107450000014195218717120799116_);}
	.st21{fill:url(#SVGID_00000137119533596177693590000012869139260267811517_);}
	.st22{fill:url(#SVGID_00000091004968655166124120000014537470845432521369_);}
	.st23{fill:url(#SVGID_00000183932020047940688560000004498241116194971267_);}
	.st24{fill:url(#SVGID_00000088846376352450146570000001883458479263859091_);}
	.st25{fill:url(#SVGID_00000040563712490649205080000002479805815627886496_);}
	.st26{fill:url(#SVGID_00000023275069878244024450000018041863670230972288_);}
	.st27{fill:url(#SVGID_00000025418377750794220160000012788481648382838195_);}
	.st28{fill:url(#SVGID_00000119095417444917869530000014035319741016328107_);}
	.st29{fill:url(#SVGID_00000065795077370834830630000002486529859448668086_);}
	
		.st30{clip-path:url(#SVGID_00000070094411577690160800000009020433962027371688_);fill:url(#SVGID_00000129927963358177336580000016505910517354190268_);}
	.st31{fill:url(#SVGID_00000116949725916822265520000003678634405154603952_);}
	.st32{fill:#F26423;}
	.st33{fill:url(#SVGID_00000083091268284639449100000003646146982417573006_);}
	.st34{fill:url(#SVGID_00000060725961534890852240000008129316394204282511_);}
	.st35{fill:url(#SVGID_00000164490983262960047760000013391061021089343889_);}
	.st36{fill:url(#SVGID_00000023989407350008458400000017401151467834089391_);}
	.st37{fill:url(#SVGID_00000140730978769749603970000000553932476638940587_);}
	.st38{fill:url(#SVGID_00000139254888726422972600000005664657001620741561_);}
	.st39{fill:url(#SVGID_00000000942668083926662370000016409279191406439337_);}
	.st40{fill:url(#SVGID_00000132082317848410733300000017294562753027939503_);}
	
		.st41{clip-path:url(#SVGID_00000155133853591252616870000012195377860268799380_);fill:url(#SVGID_00000168806285531466438470000001621110932688924072_);}
	.st42{fill:url(#SVGID_00000020368851441518235210000013880581597602961069_);}
	.st43{fill:url(#SVGID_00000009565282147943408130000007930934336277647011_);}
	.st44{fill:url(#SVGID_00000147905712393694502210000009476045381478032818_);}
	.st45{fill:url(#SVGID_00000035499623500593872840000010684014326009210519_);}
	.st46{fill:url(#SVGID_00000010299142453213496050000009564545290437816469_);}
	.st47{fill:url(#SVGID_00000101811708847241454470000010543279763248561543_);}
	.st48{fill:url(#SVGID_00000119804858378778355370000006562100954339593914_);}
	.st49{display:inline;fill:url(#SVGID_00000091726991411905277640000017181618897760780172_);}
	.st50{display:inline;fill:url(#SVGID_00000121960475903163536360000012390867138898411928_);}
	
		.st51{clip-path:url(#SVGID_00000137841143978867691390000016707823141881687987_);fill:url(#SVGID_00000029758270771544553770000015056723929616414397_);}
	.st52{fill:url(#SVGID_00000008868562420158015430000017824074944855424923_);}
	.st53{fill:url(#SVGID_00000119813024776231738750000018204168762026983326_);}
</style>
<g id="Layer_2" class="st0">
	<rect x="-945.7" y="96" class="st1" width="788.4" height="458.6"/>
</g>
<g id="Layer_1">
	
		<image style="overflow:visible;" width="1536" height="1024" xlink:href="../Technical Drawing.jpeg"  transform="matrix(1 0 0 1 -1242.7887 952.6383)">
	</image>
	<g>
		<defs>
			<rect id="SVGID_1_" x="592.3" y="-592.3" width="1585" height="629.1"/>
		</defs>
		<clipPath id="SVGID_00000056405443519596975930000009380897313261855902_">
			<use xlink:href="#SVGID_1_"  style="overflow:visible;"/>
		</clipPath>
		<g style="clip-path:url(#SVGID_00000056405443519596975930000009380897313261855902_);">
			
				<image style="overflow:visible;" width="1536" height="1024" xlink:href="../Velobranding.jpeg"  transform="matrix(1 0 0 1 629.0837 -525.4589)">
			</image>
		</g>
	</g>
	
		<image style="overflow:visible;" width="1536" height="1024" xlink:href="../WhatsApp Image 2026-04-06 at 7.51.42 PM.jpeg"  transform="matrix(0.5047 0 0 0.5047 -908.4482 -669.1064)">
	</image>
	<rect x="655.6" y="-469.8" class="st2" width="418.2" height="286.5"/>
	<rect x="1720.8" y="-451.4" class="st2" width="418.2" height="286.5"/>
	<polygon class="st3" points="-568.2,-351.6 -447.2,-513.2 -348.8,-513.2 	"/>
	<polygon class="st3" points="-602.6,-316.6 -454,-519.8 -314.6,-519.8 	"/>
	<polygon class="st3" points="-586.7,-316.6 -455.3,-409.7 -382.7,-316.6 	"/>
	<polygon class="st3" points="-455.3,-409.7 -382.7,-316.6 -307.4,-316.6 -408,-443.2 	"/>
	<polygon class="st4" points="-484.1,364.5 -411.5,457.6 -336.2,457.6 -436.8,331 	"/>
	<path class="st3" d="M-707.9-500.2l51.7,12.3c0,0,6.8,1.5,10.6,10.6l13.1,31.1l-9.8,5.4l-14.2-32.9c0,0-3-7.3-10.1-9.8
		L-707.9-500.2z"/>
	<g class="st0">
		<path class="st5" d="M-640.1,299.5c-24.7,0-44.7,20.1-44.7,44.7s20.1,44.7,44.7,44.7s44.7-20.1,44.7-44.7
			S-615.4,299.5-640.1,299.5z"/>
	</g>
	<path class="st6" d="M-582.9-438.7l-1.5-3.6c-1.1-2.5-4.4-2.9-6-0.7l-11.1,15.5c-0.7,1-2,1.6-3.3,1.4l-2.6-0.3
		c-1.1-0.1-2.1-0.8-2.6-1.8l-1.1-2.1c-0.6-1-0.6-2.3,0-3.3l9.5-17.8c1.2-2.3-0.4-5.1-3-5.1l-3.6,0c-0.1,0-0.2,0-0.3,0
		c-10.2,0-30.1,5-34.7,24l0,0.1c-0.1,0.5-2.3,11.3,3.5,20.5c0.3,0.4,1.1,2.3,0.5,3.4l-38.8,67c-0.8,1.3-0.6,3,0.5,4.1l1.1,1.2
		c0.6,0.6,3.6,3.6,8.3,4.8l1.2,0.3c1.2,0.3,2.5-0.1,3.4-1l1.5-1.6c2.1-2.2,5.9-0.8,6,2.3l0.1,4.2c0,1.9,1.6,3.4,3.5,3.4h7.4
		c1.3,0,2.5-0.7,3.1-1.8l34.8-64.8c0.1-0.1,0.4-0.1,0.8-0.2c0.8-0.1,19.3-2.3,25.2-16.3C-580.3-408.8-575.4-421-582.9-438.7z"/>
	<path class="st4" d="M-582.9,603l-1.5-3.6c-1.1-2.5-4.4-2.9-6-0.7l-11.1,15.5c-0.7,1-2,1.6-3.3,1.4l-2.6-0.3
		c-1.1-0.1-2.1-0.8-2.6-1.8l-1.1-2.1c-0.6-1-0.6-2.3,0-3.3l9.5-17.8c1.2-2.3-0.4-5.1-3-5.1l-3.6,0c-0.1,0-0.2,0-0.3,0
		c-10.2,0-30.1,5-34.7,24l0,0.1c-0.1,0.5-2.3,11.3,3.5,20.5c0.3,0.4,1.1,2.3,0.5,3.4l-38.8,67c-0.8,1.3-0.6,3,0.5,4.1l1.1,1.2
		c0.6,0.6,3.6,3.6,8.3,4.8l1.2,0.3c1.2,0.3,2.5-0.1,3.4-1l1.5-1.6c2.1-2.2,5.9-0.8,6,2.3l0.1,4.2c0,1.9,1.6,3.4,3.5,3.4h7.4
		c1.3,0,2.5-0.7,3.1-1.8l34.8-64.8c0.1-0.1,0.4-0.1,0.8-0.2c0.8-0.1,19.3-2.3,25.2-16.3C-580.3,632.9-575.4,620.7-582.9,603z"/>
	<path class="st3" d="M-666.8-336.9l9.6-10.1l6.5,2.7l0.3,14.9h4l34.4-64c0,0,1.1-2.4,5-2.8c0,0,16-1.7,20.6-12.9
		c0,0,5.4-10.7-1.7-27.5l-12,16.8l-12.6-1.6l-5.7-10.5l10.1-19c0,0-24.7-0.2-29.4,19.7c0,0-1.9,8.9,2.8,16.3c0,0,3.1,4.9,0.5,9.3
		l-37.9,65.5C-672.4-340.1-670.1-337.7-666.8-336.9z"/>
	<path class="st7" d="M-1215,491l9.6-10.1l6.5,2.7l0.3,14.9h4l34.4-64c0,0,1.1-2.4,5-2.8c0,0,16-1.7,20.6-12.9
		c0,0,5.4-10.7-1.7-27.5l-12,16.8l-12.6-1.6l-5.7-10.5l10.1-19c0,0-24.7-0.2-29.4,19.7c0,0-1.9,8.9,2.8,16.3c0,0,3.1,4.9,0.5,9.3
		l-37.9,65.5C-1220.5,487.8-1218.3,490.2-1215,491z"/>
	<path class="st3" d="M-522-513.2c-3.3,0-5.1,3.8-5.1,3.8l-41.1,78l-32.2-77.6c-1.7-4.6-5.5-4.2-5.5-4.2l-89.5-2l81.2,15.1
		l23.7,57.4l0.2-0.3c1.6-2.2,5-1.8,6,0.7l1.5,3.6c4.2,10,4.5,18.2,3.8,23.9l10.9,26.4l84.1-124.7H-522z"/>
	<path class="st3" d="M-531.4-519.8l-36.8,73.5l-27.2-66.9c0,0-1.6-6.6-12-6.6h-120.5l75.2,19.7c0,0,13.3,3.6,18,15.2l12.5,30.8
		c5-1.7,9.9-2.4,13.6-2.4c0.1,0,0.2,0,0.3,0l3.6,0c2.6,0,4.3,2.8,3,5.1l-9.5,17.8c-0.6,1-0.5,2.3,0,3.3l1.1,2.1
		c0.5,1,1.5,1.6,2.6,1.8l2.6,0.3c1.3,0.2,2.5-0.4,3.3-1.4l11.1-15.5c1.6-2.2,5-1.8,6,0.7l1.5,3.6c7.4,17.7,2.6,30,1.7,32
		c-3.2,7.7-10.2,11.8-16.1,14l14.4,35.3l112.4-162.4H-531.4z"/>
	<path class="st8" d="M-707.9,253.5l51.7,12.3c0,0,6.8,1.5,10.6,10.6l41.7,97.4l-14,5.4l-42.9-99.1c0,0,1.3-7.3-5.9-9.8
		L-707.9,253.5z"/>
	<path class="st6" d="M-658.5-375.5l4.3-7.4c-9.6-5.1-16.1-15.1-16.1-26.7c0-14.7,10.5-26.9,24.4-29.6l-3.4-7.9
		c-16.9,4.1-29.5,19.4-29.5,37.6C-678.8-394.8-670.6-382-658.5-375.5z"/>
	<path class="st6" d="M-677.4-342.8l15.5-26.8c-14.1-7.7-23.7-22.8-23.7-40c0-20.9,14.2-38.5,33.4-43.9l-6.2-14.7
		c-5.6,1.7-10.8,4.3-15.5,7.4l-11.5-7.5l-14,15.1l8.3,9.4c-2.8,4.1-5.1,8.6-6.8,13.4l-12.8,0.6l-2.4,20.4l11.7,2.5
		c0.2,5.4,1.2,10.6,2.7,15.5l-10.5,7.3l8.8,18.6l13.4-4.8c3.2,3.8,6.8,7.2,10.8,10.1l-6.5,13.2L-677.4-342.8z"/>
	<polygon class="st3" points="-475.5,-395.4 -455.3,-409.7 -455.3,-409.7 -586.7,-316.6 -414,-316.6 	"/>
	
		<linearGradient id="SVGID_00000098936158022357371300000003199870669222164927_" gradientUnits="userSpaceOnUse" x1="-363.2658" y1="-8.8939" x2="-579.5777" y2="226.9301">
		<stop  offset="0" style="stop-color:#F68B20"/>
		<stop  offset="0.165" style="stop-color:#E87C23"/>
		<stop  offset="0.7257" style="stop-color:#CC5027"/>
		<stop  offset="1" style="stop-color:#C23D27"/>
	</linearGradient>
	<polygon style="fill:url(#SVGID_00000098936158022357371300000003199870669222164927_);" points="-602.6,217.2 -454,14 -314.6,14 	
		"/>
	
		<linearGradient id="SVGID_00000126308806744085110110000009972734058083554434_" gradientUnits="userSpaceOnUse" x1="-585.2068" y1="136.5872" x2="-385.3296" y2="46.0004">
		<stop  offset="0" style="stop-color:#F15B24"/>
		<stop  offset="0.162" style="stop-color:#F26824"/>
		<stop  offset="0.7232" style="stop-color:#F68E20"/>
		<stop  offset="0.9977" style="stop-color:#F89D1E"/>
	</linearGradient>
	<polygon style="fill:url(#SVGID_00000126308806744085110110000009972734058083554434_);" points="-568.2,182.3 -447.2,20.7 
		-348.8,20.7 	"/>
	<polygon class="st3" points="-586.7,217.2 -455.3,124.1 -382.7,217.2 	"/>
	
		<linearGradient id="SVGID_00000109012618903528970970000015996718868653984444_" gradientUnits="userSpaceOnUse" x1="-381.3686" y1="217.2478" x2="-381.3686" y2="90.6095">
		<stop  offset="0" style="stop-color:#F15B24"/>
		<stop  offset="0.162" style="stop-color:#F26824"/>
		<stop  offset="0.7232" style="stop-color:#F68E20"/>
		<stop  offset="0.9977" style="stop-color:#F89D1E"/>
	</linearGradient>
	<polygon style="fill:url(#SVGID_00000109012618903528970970000015996718868653984444_);" points="-455.3,124.1 -382.7,217.2 
		-307.4,217.2 -408,90.6 	"/>
	
		<linearGradient id="SVGID_00000093175508864297979690000007425498581761014164_" gradientUnits="userSpaceOnUse" x1="-703.777" y1="58.6095" x2="-628.4153" y2="58.6095">
		<stop  offset="0" style="stop-color:#F15B24"/>
		<stop  offset="0.162" style="stop-color:#F26824"/>
		<stop  offset="0.7232" style="stop-color:#F68E20"/>
		<stop  offset="0.9977" style="stop-color:#F89D1E"/>
	</linearGradient>
	<path style="fill:url(#SVGID_00000093175508864297979690000007425498581761014164_);" d="M-703.8,28.9l51.7,12.3
		c0,0,6.8,1.5,10.6,10.6l13.1,31.1l-9.8,5.4l-14.2-32.9c0,0-3-7.3-10.1-9.8L-703.8,28.9z"/>
	
		<linearGradient id="SVGID_00000163770631600623262350000008274856292506855055_" gradientUnits="userSpaceOnUse" x1="-672.3738" y1="143.7477" x2="-584.457" y2="143.7477">
		<stop  offset="0" style="stop-color:#F15B24"/>
		<stop  offset="0.162" style="stop-color:#F26824"/>
		<stop  offset="0.7232" style="stop-color:#F68E20"/>
		<stop  offset="0.9977" style="stop-color:#F89D1E"/>
	</linearGradient>
	<path style="fill:url(#SVGID_00000163770631600623262350000008274856292506855055_);" d="M-666.8,196.9l9.6-10.1l6.5,2.7l0.3,14.9
		h4l34.4-64c0,0,1.1-2.4,5-2.8c0,0,16-1.7,20.6-12.9c0,0,5.4-10.7-1.7-27.5l-12,16.8l-12.6-1.6l-5.7-10.5l10.1-19
		c0,0-24.7-0.2-29.4,19.7c0,0-1.9,8.9,2.8,16.3c0,0,3.1,4.9,0.5,9.3l-37.9,65.5C-672.4,193.8-670.1,196.1-666.8,196.9z"/>
	
		<linearGradient id="SVGID_00000099625295041599230910000014420669735049974937_" gradientUnits="userSpaceOnUse" x1="-727.9376" y1="95.2052" x2="-423.6572" y2="95.2052">
		<stop  offset="0" style="stop-color:#0D2243"/>
		<stop  offset="0.3635" style="stop-color:#183462"/>
		<stop  offset="0.7907" style="stop-color:#1B4587"/>
		<stop  offset="1" style="stop-color:#194D98"/>
	</linearGradient>
	<path style="fill:url(#SVGID_00000099625295041599230910000014420669735049974937_);" d="M-531.4,14l-36.8,73.5l-27.2-66.9
		c0,0-1.6-6.6-12-6.6h-120.5l75.2,19.7c0,0,13.3,3.6,18,15.2l12.5,30.8c5-1.7,9.9-2.4,13.6-2.4c0.1,0,0.2,0,0.3,0l3.6,0
		c2.6,0,4.3,2.8,3,5.1l-9.5,17.8c-0.6,1-0.5,2.3,0,3.3l1.1,2.1c0.5,1,1.5,1.6,2.6,1.8l2.6,0.3c1.3,0.2,2.5-0.4,3.3-1.4l11.1-15.5
		c1.6-2.2,5-1.8,6,0.7l1.5,3.6c7.4,17.7,2.6,30,1.7,32c-3.2,7.7-10.2,11.8-16.1,14l14.4,35.3L-470.5,14H-531.4z"/>
	<path class="st15" d="M-522,20.7c-3.3,0-5.1,3.8-5.1,3.8l-41.1,78l-32.2-77.6c-1.7-4.6-5.5-4.2-5.5-4.2l-89.5-2l81.2,15.1
		l23.7,57.4l0.2-0.3c1.6-2.2,5-1.8,6,0.7l1.5,3.6c4.2,10,4.5,18.2,3.8,23.9l10.9,26.4l84.1-124.7H-522z"/>
	
		<linearGradient id="SVGID_00000013887263567157444500000001566954817200928439_" gradientUnits="userSpaceOnUse" x1="-679.4673" y1="191.0756" x2="-679.4673" y2="65.6875">
		<stop  offset="0" style="stop-color:#0D2243"/>
		<stop  offset="0.3635" style="stop-color:#183462"/>
		<stop  offset="0.7907" style="stop-color:#1B4587"/>
		<stop  offset="1" style="stop-color:#194D98"/>
	</linearGradient>
	<path style="fill:url(#SVGID_00000013887263567157444500000001566954817200928439_);" d="M-678.8,124.3c0-18.2,12.6-33.4,29.5-37.6
		l3.4,7.9c-13.9,2.7-24.4,15-24.4,29.6c0,11.6,6.5,21.6,16.1,26.7l-4.3,7.4C-670.6,151.8-678.8,139-678.8,124.3z M-677.4,191.1
		l15.5-26.8c-14.1-7.7-23.7-22.8-23.7-40c0-20.9,14.2-38.5,33.4-43.9l-6.2-14.7c-5.6,1.7-10.8,4.3-15.5,7.4l-11.5-7.5l-14,15.1
		l8.3,9.4c-2.8,4.1-5.1,8.6-6.8,13.4l-12.8,0.6l-2.4,20.4l11.7,2.5c0.2,5.4,1.2,10.6,2.7,15.5l-10.5,7.3l8.8,18.6l13.4-4.8
		c3.2,3.8,6.8,7.2,10.8,10.1l-6.5,13.2L-677.4,191.1z"/>
	<polygon class="st3" points="-475.5,138.4 -586.7,217.2 -414,217.2 	"/>
	<g>
		
			<linearGradient id="SVGID_00000075849402874882111720000017553543488885278350_" gradientUnits="userSpaceOnUse" x1="-703.777" y1="59.347" x2="-628.7947" y2="59.347">
			<stop  offset="0" style="stop-color:#F15B24"/>
			<stop  offset="0.162" style="stop-color:#F26824"/>
			<stop  offset="0.7232" style="stop-color:#F68E20"/>
			<stop  offset="0.9977" style="stop-color:#F89D1E"/>
		</linearGradient>
		<path style="fill:url(#SVGID_00000075849402874882111720000017553543488885278350_);" d="M-652.4,55.5l14.5,34.3
			c2.6-3.3,5.8-5.8,9.2-7.7l-12.7-30.4c-3.8-9.1-10.6-10.6-10.6-10.6l-51.7-12.3l41.2,16.8C-655.4,48.1-652.4,55.5-652.4,55.5z"/>
		
			<linearGradient id="SVGID_00000129893321585550182750000014351586260103495299_" gradientUnits="userSpaceOnUse" x1="-611.8915" y1="167.0652" x2="-587.3418" y2="167.0652">
			<stop  offset="0" style="stop-color:#F15B24"/>
			<stop  offset="0.162" style="stop-color:#F26824"/>
			<stop  offset="0.7232" style="stop-color:#F68E20"/>
			<stop  offset="0.9977" style="stop-color:#F89D1E"/>
		</linearGradient>
		<path style="fill:url(#SVGID_00000129893321585550182750000014351586260103495299_);" d="M-606.4,142.9c-0.4,0-0.7,0.1-0.8,0.2
			l-4.7,8.7l16.8,40l7.7-10.4l-16.3-39C-605.2,142.7-606.2,142.8-606.4,142.9z"/>
	</g>
	<g>
		<defs>
			<polygon id="SVGID_00000021812417969863998010000002462460515057062554_" points="-466.9,131.3 -401.4,217.2 -503.3,217.2 
				-531.1,177.8 			"/>
		</defs>
		<clipPath id="SVGID_00000171720953056664306530000002132086197079072432_">
			<use xlink:href="#SVGID_00000021812417969863998010000002462460515057062554_"  style="overflow:visible;"/>
		</clipPath>
		
			<linearGradient id="SVGID_00000131327618879106810880000006368688198985553050_" gradientUnits="userSpaceOnUse" x1="-597.1908" y1="164.5406" x2="-381.3686" y2="164.5406">
			<stop  offset="0" style="stop-color:#0D2243"/>
			<stop  offset="0.3635" style="stop-color:#183462"/>
			<stop  offset="0.7907" style="stop-color:#1B4587"/>
			<stop  offset="1" style="stop-color:#194D98"/>
		</linearGradient>
		
			<path style="clip-path:url(#SVGID_00000171720953056664306530000002132086197079072432_);fill:url(#SVGID_00000131327618879106810880000006368688198985553050_);" d="
			M-523.4,55.6c29.5,18,56,39,79.5,62.9l0,0c11.3,11.5,22,23.7,32,36.5c11,14,21.1,28.8,30.5,44.4c-37.2,24.4-74.2,49.1-110.9,74.1
			c-18.7-55.4-47.3-104.5-86.4-147c-5.9-6.5-12.1-12.8-18.5-18.9c6.7-4.6,13.4-9.3,20.1-13.9c0,0,0,0,0,0
			C-559.1,81-541.2,68.3-523.4,55.6z M-571.2,115.2c-6.2-6-9.4-9-15.9-14.6c-4.1,2.8-6.1,4.2-10.1,7c6.3,5.9,9.2,9.1,15.2,15.3
			C-577.8,119.8-575.4,118.2-571.2,115.2z M-544.9,122.6c-6-6.2-9.1-9.2-15.5-15.1c-4.3,3.1-6.5,4.6-10.8,7.6
			c6.2,6,9.5,9.5,15.3,15.9C-551.3,127.8-549.4,125.9-544.9,122.6z M-541.7,147.5c-5.5-6.7-8.3-10-14.1-16.4
			c-4.5,3.2-7,5.2-11.4,8.3c5.6,6.6,8.2,9.9,13.4,16.8C-549.2,152.9-546.4,150.9-541.7,147.5z M-516.2,155.8
			c-5.3-6.9-8.1-10.3-13.7-16.9c-4.7,3.4-7.1,5.2-11.8,8.6c5.5,6.7,8.4,10.6,13.5,17.6C-523.3,161.6-521.1,159.4-516.2,155.8z
			 M-516,183.2c-4.7-7.4-7.1-11-12.2-18c-4.9,3.6-7.8,5.8-12.6,9.3c4.9,7.2,7.2,10.9,11.7,18.4C-524.1,189.2-521.1,186.9-516,183.2z
			 M-491,192.7c-4.5-7.5-7.2-11.6-12.1-18.8c-5.2,3.8-7.8,5.6-12.9,9.3c4.7,7.4,7.2,11.5,11.5,19.2
			C-499.1,198.5-496.4,196.6-491,192.7z M-494.3,221.8c-3.9-7.9-5.9-11.8-10.2-19.5c-5.4,3.9-8.5,6.1-13.9,9.9
			c4.1,8.1,6.1,12.2,9.7,19.8C-503.1,228.1-500,225.8-494.3,221.8z M-470.2,232.1c-3.7-8.1-5.9-12.5-10-20.3c-5.7,4-8.5,6-14.2,10
			c3.9,7.9,5.9,12.4,9.3,20.5C-479.1,238.3-476.1,236.2-470.2,232.1z M-477,263.1c-3-8.4-4.6-12.5-8-20.7c-5.9,4.1-9,6.3-14.9,10.4
			c3.2,8.3,4.9,12.2,7.6,20.7C-486.2,269.4-483.1,267.3-477,263.1z M-549.5,99.7c-6.6-5.7-9.9-8.4-16.8-13.7
			c-4.2,2.9-6.3,4.4-10.4,7.3c6.7,5.5,10,8.3,16.3,14.2C-556.1,104.4-553.9,102.9-549.5,99.7z M-522,106c-6.5-5.9-9.8-8.7-16.5-14.2
			c-4.4,3.2-6.6,4.8-11,7.9c6.6,5.7,9.8,8.6,16,14.6C-528.9,111-526.6,109.4-522,106z M-518,130.3c-5.9-6.4-9.3-9.9-15.5-15.9
			c-4.6,3.3-6.9,5-11.4,8.2c6,6.2,9.3,9.8,15,16.3C-525.2,135.5-522.8,133.8-518,130.3z M-491,137.6c-5.8-6.6-8.8-9.8-14.9-16.1
			c-4.9,3.5-7.3,5.3-12.1,8.8c5.9,6.4,9.1,10.1,14.6,16.8C-498.4,143.4-496.1,141.2-491,137.6z M-490,164.4
			c-5.2-7.1-7.8-10.6-13.4-17.3c-5,3.7-7.8,5.1-12.8,8.7c5.3,6.9,8.2,10.8,13.1,18C-497.9,170.1-495.3,168.2-490,164.4z
			 M-463.7,172.7c-5-7.3-7.6-10.8-13.1-17.8c-5.3,3.8-8,5.7-13.2,9.5c5.2,7.1,7.7,10.7,12.4,18.1
			C-472,178.6-469.3,176.6-463.7,172.7z M-465.8,201.8c-4.4-7.7-6.7-11.5-11.4-18.9c-5.5,3.9-8.3,5.9-13.7,9.8
			c4.5,7.5,6.7,11.4,10.8,19.2C-474.5,207.8-471.6,205.8-465.8,201.8z M-440,211.4c-4.2-7.9-6.7-12.2-11.3-19.8
			c-5.8,4.1-8.7,6.1-14.5,10.1c4.4,7.7,6.7,12,10.6,20C-449.2,217.7-446.1,215.6-440,211.4z M-445.8,242.1
			c-3.5-8.2-5.4-12.3-9.4-20.3c-6,4.1-9,6.2-15,10.3c3.7,8.1,5.4,12.2,8.7,20.5C-455.3,248.4-452.1,246.3-445.8,242.1z M-527.3,83.8
			c-7-5.3-10.5-7.8-17.8-12.7c-4.3,3-6.4,4.6-10.7,7.6c7.1,5.1,10.5,7.7,17.3,13.2C-534.1,88.6-531.8,87-527.3,83.8z M-498.5,88.9
			c-6.9-5.5-10.4-8.2-17.6-13.3c-4.5,3.3-6.8,4.9-11.3,8.2c7,5.3,10.4,8,17,13.7C-505.6,94.1-503.3,92.4-498.5,88.9z M-493.7,112.6
			c-6.3-6.1-10-9.4-16.6-15.1c-4.7,3.4-7,5.1-11.7,8.5c6.4,5.9,9.9,9.2,16.1,15.5C-501.1,117.9-498.6,116.2-493.7,112.6z
			 M-465.3,118.9c-6.2-6.3-9.4-9.4-16-15.3c-5,3.6-7.4,5.4-12.4,9c6.3,6.1,9.8,9.6,15.8,16C-472.8,124.9-470.5,122.7-465.3,118.9z
			 M-463.4,145.3c-5.7-6.8-8.6-10.1-14.6-16.6c-5.1,3.7-8,5.2-13.1,8.9c5.8,6.6,8.9,10.4,14.3,17.3
			C-471.4,151-468.8,149.1-463.4,145.3z M-435.5,152.7c-5.5-7-8.4-10.5-14.3-17.2c-5.5,3.9-8.2,5.8-13.5,9.7
			c5.7,6.8,8.4,10.3,13.7,17.5C-444.1,158.7-441.2,156.7-435.5,152.7z M-436.7,181.4c-4.9-7.5-7.4-11.2-12.7-18.3
			c-5.6,4-8.4,6-14,9.9c5,7.3,7.4,11,12.1,18.6C-445.5,187.6-442.6,185.5-436.7,181.4z M-409.2,190.5c-4.8-7.7-7.5-11.9-12.7-19.3
			c-6,4.1-8.9,6.2-14.8,10.3c4.9,7.5,7.5,11.7,12,19.5C-418.5,196.8-415.4,194.7-409.2,190.5z M-414,220.8
			c-4.1-8.1-6.2-12.1-10.7-19.9c-6.2,4.2-9.2,6.3-15.3,10.4c4.2,7.9,6.2,11.9,10,20.1C-423.6,227.2-420.4,225.1-414,220.8z
			 M-504.9,67.6c-7.4-4.9-10.9-7.5-18.6-12c-4.4,3.2-6.6,4.7-10.9,7.8c7.4,4.7,11.1,7.1,18.3,12.2
			C-511.5,72.4-509.5,70.9-504.9,67.6z M-469.3,94.8c-6.2-5.2-10.4-8.6-17.3-14c-4.8,3.5-7.2,4.7-11.9,8.1
			c6.9,5.5,10.6,8.7,17.2,14.6C-476.4,100-474.3,98.5-469.3,94.8z M-436.6,126.1c-6.1-6.6-9.3-9.8-15.8-16
			c-5.3,3.8-7.4,5.3-12.6,9.1c6.2,6.3,9.3,9.6,15.2,16.3C-444.4,131.6-442.1,130-436.6,126.1z M-407.2,161.1
			c-5.4-7.3-8.3-10.8-14.1-17.7c-5.8,4.1-8.2,5.7-13.9,9.8c5.5,7.1,8.2,10.7,13.4,18.1C-415.9,167-413.3,165.2-407.2,161.1z
			 M-381.4,199.4c-4.6-8-7.4-11.8-12.4-19.5c-6.3,4.2-9.1,6.3-15.4,10.5c4.8,7.7,7,11.7,11.4,19.7
			C-391.2,205.9-388,203.7-381.4,199.4z"/>
	</g>
	
		<linearGradient id="SVGID_00000065046442438843100570000005163496266232006040_" gradientUnits="userSpaceOnUse" x1="-586.7461" y1="174.2601" x2="-463.9131" y2="174.2601">
		<stop  offset="0" style="stop-color:#0D2243"/>
		<stop  offset="0.3635" style="stop-color:#183462"/>
		<stop  offset="0.7907" style="stop-color:#1B4587"/>
		<stop  offset="1" style="stop-color:#194D98"/>
	</linearGradient>
	<polygon style="fill:url(#SVGID_00000065046442438843100570000005163496266232006040_);" points="-466.9,131.3 -586.7,217.2 
		-579.1,217.2 -463.9,135.2 	"/>
	
		<linearGradient id="SVGID_00000036221903984930892510000010105580300366239896_" gradientUnits="userSpaceOnUse" x1="975.7526" y1="-1204.9966" x2="809.3774" y2="-1023.6139">
		<stop  offset="0" style="stop-color:#F68B20"/>
		<stop  offset="0.165" style="stop-color:#E87C23"/>
		<stop  offset="0.7257" style="stop-color:#CC5027"/>
		<stop  offset="1" style="stop-color:#C23D27"/>
	</linearGradient>
	<polygon style="fill:url(#SVGID_00000036221903984930892510000010105580300366239896_);" points="791.7,-1031.1 906,-1187.4 
		1013.2,-1187.4 	"/>
	
		<linearGradient id="SVGID_00000027598940510080652960000006311613492406654383_" gradientUnits="userSpaceOnUse" x1="805.0478" y1="-1093.1006" x2="958.7823" y2="-1162.775">
		<stop  offset="0" style="stop-color:#F15B24"/>
		<stop  offset="0.162" style="stop-color:#F26824"/>
		<stop  offset="0.7232" style="stop-color:#F68E20"/>
		<stop  offset="0.9977" style="stop-color:#F89D1E"/>
	</linearGradient>
	<polygon style="fill:url(#SVGID_00000027598940510080652960000006311613492406654383_);" points="818.1,-1058 911.2,-1182.3 
		986.9,-1182.3 	"/>
	<polygon class="st3" points="803.9,-1031.1 905,-1102.7 960.8,-1031.1 	"/>
	
		<linearGradient id="SVGID_00000026127495379461592760000013522601505363458455_" gradientUnits="userSpaceOnUse" x1="961.8289" y1="-1031.0609" x2="961.8289" y2="-1128.4641">
		<stop  offset="0" style="stop-color:#F15B24"/>
		<stop  offset="0.162" style="stop-color:#F26824"/>
		<stop  offset="0.7232" style="stop-color:#F68E20"/>
		<stop  offset="0.9977" style="stop-color:#F89D1E"/>
	</linearGradient>
	<polygon style="fill:url(#SVGID_00000026127495379461592760000013522601505363458455_);" points="905,-1102.7 960.8,-1031.1 
		1018.7,-1031.1 941.3,-1128.5 	"/>
	
		<linearGradient id="SVGID_00000043419652834857713990000010640325485930987406_" gradientUnits="userSpaceOnUse" x1="713.8502" y1="-1153.0768" x2="771.8142" y2="-1153.0768">
		<stop  offset="0" style="stop-color:#F15B24"/>
		<stop  offset="0.162" style="stop-color:#F26824"/>
		<stop  offset="0.7232" style="stop-color:#F68E20"/>
		<stop  offset="0.9977" style="stop-color:#F89D1E"/>
	</linearGradient>
	<path style="fill:url(#SVGID_00000043419652834857713990000010640325485930987406_);" d="M713.9-1175.9l39.8,9.4
		c0,0,5.2,1.2,8.1,8.1l10,23.9l-7.5,4.2l-10.9-25.3c0,0-2.3-5.6-7.8-7.5L713.9-1175.9z"/>
	
		<linearGradient id="SVGID_00000048503471480487386440000010198548509102367134_" gradientUnits="userSpaceOnUse" x1="738.0038" y1="-1087.5931" x2="805.6246" y2="-1087.5931">
		<stop  offset="0" style="stop-color:#F15B24"/>
		<stop  offset="0.162" style="stop-color:#F26824"/>
		<stop  offset="0.7232" style="stop-color:#F68E20"/>
		<stop  offset="0.9977" style="stop-color:#F89D1E"/>
	</linearGradient>
	<path style="fill:url(#SVGID_00000048503471480487386440000010198548509102367134_);" d="M742.3-1046.7l7.4-7.8l5,2.1l0.2,11.4h3
		l26.5-49.2c0,0,0.8-1.8,3.9-2.1c0,0,12.3-1.3,15.8-9.9c0,0,4.1-8.2-1.3-21.1l-9.3,12.9l-9.7-1.3l-4.4-8.1l7.8-14.6
		c0,0-19-0.2-22.6,15.1c0,0-1.5,6.9,2.2,12.6c0,0,2.4,3.8,0.4,7.1l-29.1,50.4C738-1049.1,739.7-1047.3,742.3-1046.7z"/>
	
		<linearGradient id="SVGID_00000111908945952444516830000015402708275894938506_" gradientUnits="userSpaceOnUse" x1="695.2672" y1="-1124.9293" x2="929.3029" y2="-1124.9293">
		<stop  offset="0" style="stop-color:#0D2243"/>
		<stop  offset="0.3635" style="stop-color:#183462"/>
		<stop  offset="0.7907" style="stop-color:#1B4587"/>
		<stop  offset="1" style="stop-color:#194D98"/>
	</linearGradient>
	<path style="fill:url(#SVGID_00000111908945952444516830000015402708275894938506_);" d="M846.4-1187.4l-28.3,56.6l-20.9-51.5
		c0,0-1.2-5.1-9.2-5.1h-92.7l57.8,15.1c0,0,10.2,2.7,13.8,11.7l9.6,23.7c3.9-1.3,7.6-1.8,10.5-1.8c0.1,0,0.1,0,0.2,0l2.8,0
		c2,0,3.3,2.2,2.3,3.9l-7.3,13.7c-0.4,0.8-0.4,1.8,0,2.5l0.9,1.6c0.4,0.8,1.2,1.3,2,1.4l2,0.3c1,0.1,1.9-0.3,2.5-1.1l8.6-12
		c1.2-1.7,3.8-1.4,4.6,0.5l1.2,2.8c5.7,13.6,2,23,1.3,24.6c-2.5,5.9-7.9,9.1-12.4,10.7l11,27.2l86.5-124.9H846.4z"/>
	<path class="st15" d="M853.6-1182.3c-2.6,0-3.9,2.9-3.9,2.9l-31.6,60l-24.8-59.7c-1.3-3.6-4.2-3.2-4.2-3.2l-68.9-1.6l62.4,11.6
		l18.2,44.2l0.1-0.2c1.2-1.7,3.8-1.4,4.6,0.5l1.2,2.8c3.2,7.7,3.4,14,2.9,18.4l8.4,20.3l64.7-95.9H853.6z"/>
	
		<linearGradient id="SVGID_00000179609616425934400540000000727128427423319169_" gradientUnits="userSpaceOnUse" x1="732.5478" y1="-1051.1912" x2="732.5478" y2="-1147.6328">
		<stop  offset="0" style="stop-color:#0D2243"/>
		<stop  offset="0.3635" style="stop-color:#183462"/>
		<stop  offset="0.7907" style="stop-color:#1B4587"/>
		<stop  offset="1" style="stop-color:#194D98"/>
	</linearGradient>
	<path style="fill:url(#SVGID_00000179609616425934400540000000727128427423319169_);" d="M733.1-1102.5c0-14,9.7-25.7,22.7-28.9
		l2.6,6.1c-10.7,2.1-18.8,11.5-18.8,22.8c0,8.9,5,16.6,12.4,20.5l-3.3,5.7C739.4-1081.4,733.1-1091.2,733.1-1102.5z M734.2-1051.2
		l11.9-20.6c-10.9-5.9-18.3-17.5-18.3-30.7c0-16.1,10.9-29.6,25.7-33.7l-4.8-11.3c-4.3,1.3-8.3,3.3-11.9,5.7l-8.8-5.8l-10.7,11.6
		l6.4,7.2c-2.1,3.2-3.9,6.6-5.2,10.3l-9.9,0.5l-1.8,15.7l9,1.9c0.2,4.1,0.9,8.1,2.1,11.9l-8.1,5.6l6.8,14.3l10.3-3.7
		c2.5,2.9,5.2,5.5,8.3,7.8l-5,10.1L734.2-1051.2z"/>
	<polygon class="st3" points="889.4,-1091.7 803.9,-1031.1 936.7,-1031.1 	"/>
	<g>
		
			<linearGradient id="SVGID_00000156586524066420368180000013254248456453746828_" gradientUnits="userSpaceOnUse" x1="713.8502" y1="-1152.5095" x2="771.5224" y2="-1152.5095">
			<stop  offset="0" style="stop-color:#F15B24"/>
			<stop  offset="0.162" style="stop-color:#F26824"/>
			<stop  offset="0.7232" style="stop-color:#F68E20"/>
			<stop  offset="0.9977" style="stop-color:#F89D1E"/>
		</linearGradient>
		<path style="fill:url(#SVGID_00000156586524066420368180000013254248456453746828_);" d="M753.4-1155.5l11.1,26.4
			c2-2.5,4.4-4.4,7.1-5.9l-9.8-23.4c-3-7-8.1-8.1-8.1-8.1l-39.8-9.4l31.7,12.9C751.1-1161.1,753.4-1155.5,753.4-1155.5z"/>
		
			<linearGradient id="SVGID_00000069389465823661569310000004843849004289240510_" gradientUnits="userSpaceOnUse" x1="784.5234" y1="-1069.6586" x2="803.4057" y2="-1069.6586">
			<stop  offset="0" style="stop-color:#F15B24"/>
			<stop  offset="0.162" style="stop-color:#F26824"/>
			<stop  offset="0.7232" style="stop-color:#F68E20"/>
			<stop  offset="0.9977" style="stop-color:#F89D1E"/>
		</linearGradient>
		<path style="fill:url(#SVGID_00000069389465823661569310000004843849004289240510_);" d="M788.8-1088.3c-0.3,0-0.5,0.1-0.6,0.1
			l-3.6,6.7l13,30.8l5.9-8l-12.5-30C789.7-1088.4,788.9-1088.3,788.8-1088.3z"/>
	</g>
	<g>
		<defs>
			<polygon id="SVGID_00000041995850922462810490000004428895956056601525_" points="896.1,-1097.2 946.4,-1031.1 868.1,-1031.1 
				846.7,-1061.4 			"/>
		</defs>
		<clipPath id="SVGID_00000059303640685413930890000012551158196140382119_">
			<use xlink:href="#SVGID_00000041995850922462810490000004428895956056601525_"  style="overflow:visible;"/>
		</clipPath>
		
			<linearGradient id="SVGID_00000171686403313481914900000018097056238316293010_" gradientUnits="userSpaceOnUse" x1="795.8304" y1="-1071.6003" x2="961.8289" y2="-1071.6003">
			<stop  offset="0" style="stop-color:#0D2243"/>
			<stop  offset="0.3635" style="stop-color:#183462"/>
			<stop  offset="0.7907" style="stop-color:#1B4587"/>
			<stop  offset="1" style="stop-color:#194D98"/>
		</linearGradient>
		
			<path style="clip-path:url(#SVGID_00000059303640685413930890000012551158196140382119_);fill:url(#SVGID_00000171686403313481914900000018097056238316293010_);" d="
			M852.6-1155.4c22.7,13.8,43,30,61.2,48.4l0,0c8.7,8.8,16.9,18.2,24.6,28.1c8.4,10.8,16.3,22.2,23.5,34.2
			c-28.6,18.7-57,37.7-85.3,57c-14.4-42.6-36.4-80.4-66.4-113.1c-4.6-5-9.3-9.8-14.3-14.6c5.2-3.6,10.3-7.1,15.5-10.7c0,0,0,0,0,0
			C825.1-1135.8,838.9-1145.6,852.6-1155.4z M815.9-1109.6c-4.8-4.6-7.2-6.9-12.2-11.3c-3.1,2.2-4.7,3.3-7.8,5.4
			c4.9,4.5,7.1,7,11.7,11.8C810.7-1106,812.6-1107.2,815.9-1109.6z M836.1-1103.9c-4.6-4.8-7-7.1-11.9-11.6c-3.3,2.4-5,3.5-8.3,5.9
			c4.8,4.6,7.3,7.3,11.8,12.2C831.1-1099.8,832.6-1101.3,836.1-1103.9z M838.5-1084.7c-4.2-5.2-6.4-7.7-10.9-12.6
			c-3.4,2.5-5.4,4-8.8,6.4c4.3,5.1,6.3,7.6,10.3,12.9C832.7-1080.6,834.9-1082.1,838.5-1084.7z M858.2-1078.3
			c-4.1-5.3-6.2-7.9-10.6-13c-3.6,2.7-5.5,4-9.1,6.6c4.2,5.2,6.4,8.1,10.4,13.6C852.7-1073.9,854.3-1075.6,858.2-1078.3z
			 M858.3-1057.3c-3.6-5.7-5.5-8.4-9.4-13.9c-3.8,2.7-6,4.5-9.7,7.2c3.7,5.6,5.5,8.4,9,14.2C852-1052.6,854.3-1054.4,858.3-1057.3z
			 M877.5-1050c-3.5-5.8-5.5-8.9-9.3-14.5c-4,2.9-6,4.3-9.9,7.2c3.6,5.7,5.5,8.9,8.8,14.8C871.2-1045.5,873.3-1047,877.5-1050z
			 M874.9-1027.5c-3-6.1-4.5-9.1-7.8-15c-4.1,3-6.6,4.7-10.7,7.6c3.2,6.2,4.7,9.4,7.5,15.2C868.2-1022.7,870.6-1024.5,874.9-1027.5z
			 M893.5-1019.6c-2.8-6.2-4.5-9.6-7.7-15.6c-4.4,3.1-6.6,4.6-10.9,7.7c3,6.1,4.5,9.5,7.2,15.8
			C886.6-1014.9,888.9-1016.5,893.5-1019.6z M888.3-995.8c-2.3-6.5-3.5-9.6-6.2-15.9c-4.5,3.1-6.9,4.9-11.4,8
			c2.4,6.4,3.7,9.4,5.8,15.9C881.2-991,883.6-992.6,888.3-995.8z M832.5-1121.4c-5.1-4.4-7.6-6.5-12.9-10.5c-3.2,2.3-4.8,3.4-8,5.6
			c5.1,4.2,7.7,6.4,12.6,10.9C827.5-1117.8,829.1-1119,832.5-1121.4z M853.7-1116.6c-5-4.5-7.5-6.7-12.7-10.9
			c-3.4,2.5-5.1,3.7-8.5,6.1c5.1,4.4,7.5,6.6,12.3,11.3C848.3-1112.7,850.1-1114,853.7-1116.6z M856.8-1098
			c-4.5-4.9-7.1-7.6-11.9-12.2c-3.5,2.6-5.3,3.8-8.8,6.3c4.6,4.8,7.1,7.5,11.5,12.6C851.2-1093.9,853.1-1095.3,856.8-1098z
			 M877.5-1092.4c-4.4-5.1-6.7-7.6-11.4-12.4c-3.7,2.7-5.6,4.1-9.3,6.8c4.5,4.9,7,7.7,11.2,12.9
			C871.9-1087.8,873.6-1089.5,877.5-1092.4z M878.3-1071.7c-4-5.5-6-8.1-10.3-13.3c-3.9,2.8-6,3.9-9.8,6.7
			c4.1,5.3,6.3,8.3,10.1,13.9C872.2-1067.3,874.2-1068.8,878.3-1071.7z M898.5-1065.4c-3.9-5.6-5.9-8.3-10-13.7
			c-4.1,2.9-6.1,4.4-10.2,7.3c4,5.5,5.9,8.2,9.6,13.9C892.1-1060.8,894.2-1062.3,898.5-1065.4z M896.9-1043
			c-3.4-5.9-5.1-8.8-8.8-14.5c-4.2,3-6.3,4.5-10.5,7.5c3.5,5.8,5.1,8.7,8.3,14.7C890.2-1038.3,892.4-1039.8,896.9-1043z
			 M916.7-1035.5c-3.3-6.1-5.1-9.4-8.7-15.2c-4.5,3.1-6.7,4.7-11.1,7.8c3.4,5.9,5.1,9.3,8.2,15.4
			C909.7-1030.7,912-1032.3,916.7-1035.5z M912.2-1012c-2.7-6.3-4.2-9.5-7.2-15.6c-4.6,3.2-6.9,4.8-11.5,7.9
			c2.8,6.2,4.2,9.4,6.7,15.8C905-1007.1,907.4-1008.7,912.2-1012z M849.6-1133.7c-5.4-4.1-8.1-6-13.7-9.8c-3.3,2.3-4.9,3.5-8.2,5.8
			c5.4,3.9,8.1,5.9,13.3,10.1C844.4-1130,846.1-1131.2,849.6-1133.7z M871.7-1129.7c-5.3-4.3-8-6.3-13.5-10.2
			c-3.5,2.5-5.2,3.8-8.7,6.3c5.4,4.1,8,6.2,13.1,10.6C866.3-1125.8,868.1-1127.1,871.7-1129.7z M875.4-1111.6
			c-4.9-4.7-7.7-7.2-12.8-11.6c-3.6,2.6-5.4,3.9-9,6.5c5,4.5,7.6,7.1,12.4,11.9C869.8-1107.4,871.7-1108.8,875.4-1111.6z
			 M897.3-1106.7c-4.8-4.9-7.3-7.2-12.3-11.8c-3.8,2.8-5.7,4.2-9.5,6.9c4.9,4.7,7.5,7.4,12.1,12.3
			C891.5-1102.1,893.3-1103.8,897.3-1106.7z M898.8-1086.4c-4.3-5.2-6.6-7.8-11.2-12.8c-4,2.9-6.2,4-10.1,6.9c4.4,5.1,6.8,8,11,13.3
			C892.6-1082,894.6-1083.5,898.8-1086.4z M920.2-1080.7c-4.3-5.4-6.5-8.1-11-13.2c-4.2,3-6.3,4.5-10.4,7.5
			c4.3,5.2,6.5,7.9,10.5,13.4C913.6-1076.1,915.8-1077.6,920.2-1080.7z M919.3-1058.6c-3.8-5.8-5.7-8.6-9.8-14.1
			c-4.3,3.1-6.5,4.6-10.8,7.6c3.9,5.6,5.7,8.5,9.3,14.3C912.5-1053.9,914.7-1055.4,919.3-1058.6z M940.4-1051.7
			c-3.7-5.9-5.8-9.2-9.8-14.8c-4.6,3.2-6.9,4.8-11.4,7.9c3.8,5.8,5.8,9,9.2,15C933.3-1046.8,935.6-1048.4,940.4-1051.7z
			 M936.8-1028.3c-3.1-6.2-4.8-9.3-8.2-15.3c-4.7,3.2-7.1,4.8-11.8,8c3.2,6.1,4.8,9.2,7.7,15.4
			C929.3-1023.4,931.8-1025,936.8-1028.3z M866.8-1146.2c-5.7-3.8-8.4-5.8-14.3-9.2c-3.4,2.4-5.1,3.6-8.4,6
			c5.7,3.6,8.5,5.5,14.1,9.4C861.7-1142.5,863.3-1143.6,866.8-1146.2z M894.2-1125.2c-4.8-4-8-6.6-13.3-10.8
			c-3.7,2.7-5.5,3.6-9.2,6.2c5.3,4.3,8.2,6.7,13.2,11.3C888.8-1121.3,890.3-1122.4,894.2-1125.2z M919.3-1101.2
			c-4.7-5.1-7.2-7.5-12.1-12.3c-4.1,2.9-5.7,4.1-9.7,7c4.8,4.9,7.1,7.4,11.7,12.5C913.4-1096.9,915.1-1098.1,919.3-1101.2z
			 M941.9-1074.3c-4.2-5.6-6.4-8.3-10.8-13.7c-4.4,3.1-6.3,4.4-10.7,7.5c4.3,5.4,6.3,8.2,10.3,13.9
			C935.3-1069.7,937.3-1071.1,941.9-1074.3z M961.8-1044.8c-3.6-6.1-5.7-9.1-9.6-15c-4.9,3.3-7,4.9-11.8,8.1c3.7,5.9,5.4,9,8.8,15.1
			C954.2-1039.8,956.8-1041.5,961.8-1044.8z"/>
	</g>
	
		<linearGradient id="SVGID_00000070799387057228616270000007625694142713895835_" gradientUnits="userSpaceOnUse" x1="803.8639" y1="-1064.1248" x2="898.3402" y2="-1064.1248">
		<stop  offset="0" style="stop-color:#0D2243"/>
		<stop  offset="0.3635" style="stop-color:#183462"/>
		<stop  offset="0.7907" style="stop-color:#1B4587"/>
		<stop  offset="1" style="stop-color:#194D98"/>
	</linearGradient>
	<polygon style="fill:url(#SVGID_00000070799387057228616270000007625694142713895835_);" points="896.1,-1097.2 803.9,-1031.1 
		809.8,-1031.1 898.3,-1094.2 	"/>
	<rect x="172.1" y="-409.7" class="st3" width="361" height="61.8"/>
	<text transform="matrix(1 0 0 1 172.0627 -365.4061)" style="font-family:'Rajdhani-Bold'; font-size:63px;">velokraft</text>
	<g>
		<path class="st32" d="M768.3-950.9h-3.8c-0.5,0-0.6-0.2-0.5-0.5l6.2-15.6c0.2-0.4,0.6-0.5,1.2-0.5h5.2c0.7,0,1,0.2,1.2,0.5
			l6.2,15.6c0.2,0.4,0,0.5-0.5,0.5h-3.8c-0.3,0-0.5,0-0.6-0.1c-0.1-0.1-0.2-0.2-0.2-0.4l-1.1-2.9h-7.7l-1.1,2.9
			c-0.1,0.2-0.1,0.4-0.3,0.4C768.7-951,768.5-950.9,768.3-950.9z M773.9-964.5l-2.8,7.5h5.8l-2.8-7.5H773.9z"/>
		<path class="st32" d="M800.4-967.6h3.3c0.6,0,0.9,0.2,0.9,0.5v12c0,1.4-0.6,2.4-1.7,3.1c-1.1,0.7-2.7,1.1-4.8,1.1h-4.3
			c-2.1,0-3.7-0.4-4.8-1.1c-1.1-0.7-1.7-1.8-1.7-3.1v-11.9c0-0.4,0.3-0.5,0.8-0.5h3.3c0.5,0,0.8,0.2,0.8,0.5v11.8
			c0,0.6,0.2,0.9,0.5,1.2c0.4,0.2,0.9,0.4,1.7,0.4h2.7c0.8,0,1.4-0.1,1.8-0.4c0.4-0.2,0.5-0.6,0.5-1.2v-11.8
			C799.6-967.5,799.9-967.6,800.4-967.6z"/>
		<path class="st32" d="M817.3-950.9H814c-0.6,0-0.9-0.2-0.9-0.5v-13c0-0.2-0.1-0.3-0.4-0.3h-4.5c-0.5,0-0.8-0.2-0.8-0.5v-1.8
			c0-0.4,0.3-0.5,0.8-0.5h14.8c0.6,0,0.8,0.2,0.8,0.5v1.8c0,0.4-0.3,0.5-0.8,0.5h-4.5c-0.3,0-0.5,0.1-0.5,0.3v13
			C818.1-951.1,817.9-950.9,817.3-950.9z"/>
		<path class="st32" d="M837.4-950.9H833c-2.1,0-3.7-0.4-4.8-1.1c-1.1-0.7-1.7-1.8-1.7-3.1v-8.2c0-1.4,0.6-2.4,1.7-3.1
			c1.1-0.7,2.7-1.1,4.8-1.1h4.4c2.1,0,3.7,0.4,4.8,1.1c1.1,0.7,1.7,1.8,1.7,3.1v8.2c0,1.4-0.6,2.4-1.7,3.1S839.5-950.9,837.4-950.9z
			 M833.8-953.8h2.8c0.8,0,1.4-0.1,1.8-0.4c0.4-0.2,0.5-0.6,0.5-1.2v-7.9c0-0.6-0.2-0.9-0.5-1.2c-0.4-0.2-0.9-0.4-1.8-0.4h-2.8
			c-0.8,0-1.4,0.1-1.8,0.4c-0.3,0.2-0.5,0.6-0.5,1.2v7.9c0,0.6,0.2,0.9,0.5,1.2C832.3-953.9,832.9-953.8,833.8-953.8z"/>
		<path class="st32" d="M861.4-950.9H858c-0.5,0-0.8-0.2-0.8-0.5v-15.6c0-0.4,0.3-0.5,0.8-0.5h9.6c2,0,3.6,0.4,4.8,1.1
			c1.1,0.7,1.7,1.8,1.7,3.1v2.5c0,1.4-0.6,2.4-1.7,3.1c-1.1,0.7-2.7,1.1-4.8,1.1h-4.9c-0.3,0-0.5,0.1-0.5,0.3v4.9
			C862.2-951.1,861.9-950.9,861.4-950.9z M862.6-959.6h4.2c0.8,0,1.4-0.1,1.8-0.4c0.3-0.2,0.5-0.6,0.5-1.2v-2.2
			c0-0.6-0.2-0.9-0.5-1.2c-0.3-0.2-0.9-0.4-1.8-0.4h-4.2c-0.3,0-0.4,0.1-0.4,0.3v4.7C862.2-959.6,862.4-959.6,862.6-959.6z"/>
		<path class="st32" d="M880.7-950.9h-3.8c-0.5,0-0.6-0.2-0.5-0.5l6.2-15.6c0.2-0.4,0.6-0.5,1.2-0.5h5.2c0.7,0,1,0.2,1.2,0.5
			l6.2,15.6c0.2,0.4,0,0.5-0.5,0.5h-3.8c-0.3,0-0.5,0-0.6-0.1c-0.1-0.1-0.2-0.2-0.2-0.4l-1.1-2.9h-7.7l-1.1,2.9
			c-0.1,0.2-0.1,0.4-0.3,0.4C881.1-951,880.9-950.9,880.7-950.9z M886.4-964.5l-2.8,7.5h5.8l-2.8-7.5H886.4z"/>
		<path class="st32" d="M904.1-950.9h-3.3c-0.5,0-0.8-0.2-0.8-0.5v-15.6c0-0.4,0.3-0.5,0.8-0.5h9.3c2,0,3.6,0.4,4.8,1.1
			c1.2,0.7,1.7,1.8,1.7,3.1v2c0,2-1.2,3.3-3.5,3.9v0.1l4.2,5.8c0.2,0.4,0,0.6-0.7,0.6h-3.2c-0.5,0-0.8,0-1-0.1
			c-0.2-0.1-0.4-0.2-0.5-0.4l-3.9-5.6h-2.6c-0.3,0-0.5,0.1-0.5,0.3v5.3C904.9-951.1,904.6-950.9,904.1-950.9z M905.3-959.7h3.8
			c0.8,0,1.5-0.1,1.8-0.4s0.6-0.6,0.6-1.1v-2c0-0.5-0.2-0.9-0.6-1.2c-0.4-0.2-1-0.4-1.8-0.4h-3.8c-0.3,0-0.4,0.1-0.4,0.3v4.5
			C904.9-959.8,905.1-959.7,905.3-959.7z"/>
		<path class="st32" d="M929.2-950.9h-3.3c-0.6,0-0.9-0.2-0.9-0.5v-13c0-0.2-0.1-0.3-0.4-0.3h-4.5c-0.5,0-0.8-0.2-0.8-0.5v-1.8
			c0-0.4,0.3-0.5,0.8-0.5H935c0.6,0,0.8,0.2,0.8,0.5v1.8c0,0.4-0.3,0.5-0.8,0.5h-4.5c-0.3,0-0.5,0.1-0.5,0.3v13
			C930-951.1,929.8-950.9,929.2-950.9z"/>
		<path class="st32" d="M938.2-955.2v-0.5c0-0.4,0.3-0.5,0.8-0.5h3.3c0.6,0,0.8,0.2,0.8,0.5v0.2c0,0.7,0.2,1.1,0.6,1.4
			c0.4,0.2,1.1,0.4,2.2,0.4h1.8c1,0,1.7-0.1,2.1-0.4c0.4-0.3,0.6-0.7,0.6-1.5v-0.3c0-0.5-0.3-0.9-0.9-1.2c-0.6-0.3-1.4-0.4-2.3-0.5
			c-0.9-0.1-1.9-0.2-3-0.3c-1.1-0.1-2-0.3-3-0.6c-0.9-0.2-1.7-0.7-2.3-1.4c-0.6-0.7-0.9-1.6-0.9-2.6v-0.9c0-1.4,0.6-2.4,1.7-3.1
			c1.2-0.7,2.7-1.1,4.8-1.1h3.9c2.1,0,3.7,0.4,4.8,1.1c1.2,0.7,1.7,1.8,1.7,3.1v0.5c0,0.4-0.3,0.5-0.8,0.5H951
			c-0.5,0-0.8-0.2-0.8-0.5v-0.2c0-0.7-0.2-1.1-0.6-1.4c-0.4-0.2-1.1-0.4-2.2-0.4h-1.5c-1.1,0-1.8,0.1-2.2,0.4
			c-0.4,0.3-0.6,0.8-0.6,1.6v0.5c0,0.8,1.1,1.3,3.2,1.4c2.2,0.1,4.2,0.4,5.9,0.9c0.9,0.3,1.7,0.7,2.3,1.4c0.6,0.7,0.9,1.5,0.9,2.6
			v0.9c0,1.4-0.6,2.4-1.7,3.1c-1.2,0.7-2.7,1.1-4.8,1.1h-4.3c-2,0-3.6-0.4-4.8-1.1C938.8-952.8,938.2-953.8,938.2-955.2z"/>
	</g>
	<g>
		<path class="st32" d="M305.1-212.1h-5.5c-0.7,0-0.9-0.3-0.7-0.8l9.1-23.7c0.3-0.6,0.8-0.8,1.7-0.8h7.6c1,0,1.5,0.3,1.7,0.8
			l9.1,23.7c0.2,0.6,0,0.8-0.7,0.8h-5.5c-0.4,0-0.7-0.1-0.9-0.2c-0.2-0.1-0.3-0.3-0.3-0.7l-1.6-4.3h-11.2l-1.6,4.3
			c-0.1,0.3-0.2,0.5-0.4,0.7C305.7-212.1,305.5-212.1,305.1-212.1z M313.4-232.7l-4.1,11.4h8.5l-4.1-11.4H313.4z"/>
		<path class="st32" d="M360.7-237.4h4.8c0.8,0,1.3,0.3,1.3,0.8v18.2c0,2.1-0.8,3.6-2.5,4.8c-1.7,1.1-4,1.7-7,1.7H351
			c-3,0-5.4-0.6-7-1.7c-1.6-1.1-2.5-2.7-2.5-4.8v-18.1c0-0.6,0.4-0.8,1.2-0.8h4.9c0.8,0,1.2,0.3,1.2,0.8v17.9c0,0.8,0.3,1.4,0.8,1.8
			c0.5,0.4,1.4,0.5,2.6,0.5h4c1.2,0,2.1-0.2,2.6-0.5c0.5-0.4,0.8-1,0.8-1.8v-17.9C359.5-237.2,359.9-237.4,360.7-237.4z"/>
		<path class="st32" d="M393.9-212.1h-4.8c-0.8,0-1.3-0.3-1.3-0.8v-19.8c0-0.3-0.2-0.4-0.6-0.4h-6.5c-0.8,0-1.2-0.3-1.2-0.8v-2.7
			c0-0.6,0.4-0.8,1.2-0.8h21.7c0.8,0,1.2,0.3,1.2,0.8v2.7c0,0.6-0.4,0.8-1.2,0.8h-6.5c-0.5,0-0.7,0.1-0.7,0.4v19.8
			C395.2-212.3,394.8-212.1,393.9-212.1z"/>
		<path class="st32" d="M431.9-212.1h-6.4c-3,0-5.4-0.6-7-1.7c-1.6-1.1-2.5-2.7-2.5-4.8V-231c0-2.1,0.8-3.7,2.5-4.8
			c1.6-1.1,4-1.7,7-1.7h6.4c3,0,5.4,0.6,7,1.7c1.6,1.1,2.5,2.7,2.5,4.8v12.5c0,2.1-0.8,3.7-2.5,4.8
			C437.2-212.6,434.9-212.1,431.9-212.1z M426.6-216.4h4.1c1.2,0,2.1-0.2,2.6-0.5c0.5-0.4,0.8-1,0.8-1.8v-12c0-0.8-0.3-1.4-0.8-1.8
			c-0.5-0.4-1.4-0.5-2.6-0.5h-4.1c-1.2,0-2.1,0.2-2.6,0.5c-0.5,0.4-0.7,1-0.7,1.8v12c0,0.8,0.2,1.4,0.7,1.8
			C424.5-216.6,425.4-216.4,426.6-216.4z"/>
	</g>
	<rect x="682.7" y="-203.2" class="st3" width="354.9" height="16"/>
	<text transform="matrix(1 0 0 1 735.5646 -191.2534)" style="font-family:'Rajdhani-Medium'; font-size:17px;">engineered for what moves next</text>
	
		<linearGradient id="SVGID_00000101097809955933423500000017311827873634817936_" gradientUnits="userSpaceOnUse" x1="682.2794" y1="-999.3041" x2="1037.173" y2="-999.3041">
		<stop  offset="0" style="stop-color:#0D2243"/>
		<stop  offset="0.3635" style="stop-color:#183462"/>
		<stop  offset="0.7907" style="stop-color:#1B4587"/>
		<stop  offset="1" style="stop-color:#194D98"/>
	</linearGradient>
	<path style="fill:url(#SVGID_00000101097809955933423500000017311827873634817936_);" d="M706.8-980.8h-10.3c-1.1,0-1.7-0.4-2-1.2
		l-12.1-34.5c-0.4-0.9,0.2-1.3,1.6-1.3h7.4c1,0,1.7,0.4,1.9,1.2l8.2,28.3h0.3l8.2-28.3c0.2-0.8,0.8-1.2,1.9-1.2h7.4
		c1.3,0,1.8,0.4,1.6,1.3L708.6-982C708.4-981.2,707.7-980.8,706.8-980.8z M754.3-980.8h-25.6c-1.1,0-1.6-0.4-1.6-1.2v-34.6
		c0-0.8,0.5-1.2,1.6-1.2h25.6c1,0,1.6,0.4,1.6,1.2v3.9c0,0.8-0.5,1.2-1.6,1.2h-16.4c-0.6,0-0.9,0.2-0.9,0.6v7.5
		c0,0.4,0.3,0.6,0.9,0.6h13.4c1.1,0,1.6,0.4,1.6,1.2v3.9c0,0.8-0.5,1.2-1.6,1.2h-13.4c-0.6,0-0.9,0.2-0.9,0.6v8
		c0,0.4,0.3,0.6,0.9,0.6h16.4c1,0,1.6,0.4,1.6,1.2v3.9C755.9-981.2,755.3-980.8,754.3-980.8z M792-980.8h-25.8
		c-1.1,0-1.6-0.4-1.6-1.2v-34.6c0-0.8,0.5-1.2,1.6-1.2h6.7c1.1,0,1.6,0.4,1.6,1.2v28.8c0,0.4,0.3,0.6,0.9,0.6H792
		c1,0,1.6,0.4,1.6,1.3v3.9C793.6-981.2,793-980.8,792-980.8z M820.7-980.8h-8.8c-4.1,0-7.3-0.8-9.6-2.4c-2.2-1.6-3.4-3.9-3.4-7
		v-18.2c0-3,1.1-5.4,3.4-7c2.2-1.6,5.4-2.4,9.6-2.4h8.8c4.1,0,7.3,0.8,9.6,2.4c2.2,1.6,3.4,3.9,3.4,7v18.2c0,3-1.1,5.4-3.4,7
		C828-981.6,824.8-980.8,820.7-980.8z M813.4-987.1h5.6c1.7,0,2.9-0.3,3.6-0.8c0.7-0.5,1.1-1.4,1.1-2.6v-17.5c0-1.2-0.4-2.1-1.1-2.6
		c-0.7-0.5-1.9-0.8-3.6-0.8h-5.6c-1.7,0-2.8,0.3-3.5,0.8c-0.7,0.5-1,1.4-1,2.6v17.5c0,1.2,0.3,2.1,1,2.6
		C810.6-987.4,811.8-987.1,813.4-987.1z M851.3-980.8h-6.7c-1.1,0-1.6-0.4-1.6-1.2v-34.6c0-0.8,0.5-1.2,1.6-1.2h6.7
		c1.1,0,1.6,0.4,1.6,1.2v16.4h0.2c0.4-0.9,1.2-2.1,2.4-3.6l11.9-12.8c0.7-0.8,1.7-1.2,3.1-1.2h7.7c0.6,0,0.9,0.1,1.1,0.4
		c0.1,0.3,0,0.6-0.4,0.9l-14.9,15.1l16.6,19.1c0.4,0.5,0.4,0.8,0.2,1.1c-0.2,0.3-0.7,0.4-1.4,0.4h-5.7c-1.8,0-3.1-0.4-3.7-1.2
		l-12-14.1l-4.9,4.3v9.8C852.9-981.2,852.4-980.8,851.3-980.8z M895-980.8h-6.7c-1.1,0-1.6-0.4-1.6-1.2v-34.6c0-0.8,0.5-1.2,1.6-1.2
		H907c4.1,0,7.3,0.8,9.6,2.5c2.3,1.6,3.4,4,3.4,7v4.5c0,4.3-2.3,7.2-7,8.6v0.2l8.4,12.8c0.5,0.9,0,1.4-1.3,1.4h-6.3
		c-0.9,0-1.6-0.1-2-0.2c-0.4-0.2-0.8-0.5-1-1l-7.8-12.4h-5.2c-0.6,0-0.9,0.2-0.9,0.6v11.8C896.6-981.2,896.1-980.8,895-980.8z
		 M897.5-1000.3h7.7c1.7,0,2.9-0.3,3.7-0.8c0.8-0.5,1.2-1.4,1.2-2.5v-4.5c0-1.2-0.4-2.1-1.2-2.6c-0.8-0.5-2-0.8-3.7-0.8h-7.7
		c-0.6,0-0.9,0.2-0.9,0.6v9.9C896.6-1000.5,896.9-1000.3,897.5-1000.3z M934.8-980.8h-7.5c-0.9,0-1.3-0.4-0.9-1.2l12.4-34.6
		c0.4-0.8,1.1-1.2,2.4-1.2h10.4c1.3,0,2.1,0.4,2.3,1.2l12.4,34.6c0.3,0.8,0,1.2-0.9,1.2h-7.5c-0.6,0-1-0.1-1.2-0.3
		c-0.2-0.2-0.4-0.5-0.5-0.9l-2.2-6.3h-15.3l-2.2,6.3c-0.1,0.5-0.3,0.8-0.5,0.9C935.7-980.9,935.3-980.8,934.8-980.8z M946.1-1010.8
		l-5.6,16.6h11.6l-5.6-16.6H946.1z M981.5-980.8h-6.7c-1.1,0-1.6-0.4-1.6-1.2v-34.6c0-0.8,0.5-1.2,1.6-1.2h25c1,0,1.6,0.4,1.6,1.2
		v3.9c0,0.8-0.5,1.2-1.6,1.2h-15.7c-0.6,0-0.9,0.2-0.9,0.6v8.9c0,0.5,0.3,0.7,0.9,0.7h13.4c1.1,0,1.6,0.4,1.6,1.2v3.9
		c0,0.8-0.5,1.3-1.6,1.3h-13.4c-0.6,0-0.9,0.2-0.9,0.6v12.3C983.1-981.2,982.6-980.8,981.5-980.8z M1024-980.8h-6.6
		c-1.1,0-1.7-0.4-1.7-1.2v-28.8c0-0.4-0.3-0.6-0.9-0.6h-8.9c-1.1,0-1.6-0.4-1.6-1.2v-3.9c0-0.8,0.5-1.2,1.6-1.2h29.6
		c1.1,0,1.6,0.4,1.6,1.2v3.9c0,0.8-0.5,1.2-1.6,1.2h-8.9c-0.6,0-0.9,0.2-0.9,0.6v28.8C1025.7-981.2,1025.1-980.8,1024-980.8z"/>
	
		<linearGradient id="SVGID_00000075874832051980733990000002044524986862199446_" gradientUnits="userSpaceOnUse" x1="975.7526" y1="-476.0606" x2="809.3774" y2="-294.6779">
		<stop  offset="0" style="stop-color:#F68B20"/>
		<stop  offset="0.165" style="stop-color:#E87C23"/>
		<stop  offset="0.7257" style="stop-color:#CC5027"/>
		<stop  offset="1" style="stop-color:#C23D27"/>
	</linearGradient>
	<polygon style="fill:url(#SVGID_00000075874832051980733990000002044524986862199446_);" points="791.7,-302.1 906,-458.4 
		1013.2,-458.4 	"/>
	
		<linearGradient id="SVGID_00000110449656983766084250000008575831380617537718_" gradientUnits="userSpaceOnUse" x1="805.0478" y1="-364.1646" x2="958.7823" y2="-433.839">
		<stop  offset="0" style="stop-color:#F15B24"/>
		<stop  offset="0.162" style="stop-color:#F26824"/>
		<stop  offset="0.7232" style="stop-color:#F68E20"/>
		<stop  offset="0.9977" style="stop-color:#F89D1E"/>
	</linearGradient>
	<polygon style="fill:url(#SVGID_00000110449656983766084250000008575831380617537718_);" points="818.1,-329 911.2,-453.3 
		986.9,-453.3 	"/>
	<polygon class="st3" points="803.9,-302.1 905,-373.8 960.8,-302.1 	"/>
	
		<linearGradient id="SVGID_00000183956464863763919010000001775183316046087357_" gradientUnits="userSpaceOnUse" x1="961.8289" y1="-302.125" x2="961.8289" y2="-399.5281">
		<stop  offset="0" style="stop-color:#F15B24"/>
		<stop  offset="0.162" style="stop-color:#F26824"/>
		<stop  offset="0.7232" style="stop-color:#F68E20"/>
		<stop  offset="0.9977" style="stop-color:#F89D1E"/>
	</linearGradient>
	<polygon style="fill:url(#SVGID_00000183956464863763919010000001775183316046087357_);" points="905,-373.8 960.8,-302.1 
		1018.7,-302.1 941.3,-399.5 	"/>
	
		<linearGradient id="SVGID_00000155852259327806625560000012986323356120818592_" gradientUnits="userSpaceOnUse" x1="713.8502" y1="-384.3683" x2="803.4057" y2="-384.3683">
		<stop  offset="0" style="stop-color:#F15B24"/>
		<stop  offset="0.162" style="stop-color:#F26824"/>
		<stop  offset="0.7232" style="stop-color:#F68E20"/>
		<stop  offset="0.9977" style="stop-color:#F89D1E"/>
	</linearGradient>
	<path style="fill:url(#SVGID_00000155852259327806625560000012986323356120818592_);" d="M713.9-447l39.8,9.4c0,0,5.2,1.2,8.1,8.1
		l41.6,99.7l-5.9,8l-44.1-104.8c0,0-2.3-5.6-7.8-7.5L713.9-447z"/>
	
		<linearGradient id="SVGID_00000178918042471448150530000016296434514602065324_" gradientUnits="userSpaceOnUse" x1="695.2672" y1="-395.9934" x2="929.3029" y2="-395.9934">
		<stop  offset="0" style="stop-color:#0D2243"/>
		<stop  offset="0.3635" style="stop-color:#183462"/>
		<stop  offset="0.7907" style="stop-color:#1B4587"/>
		<stop  offset="1" style="stop-color:#194D98"/>
	</linearGradient>
	<path style="fill:url(#SVGID_00000178918042471448150530000016296434514602065324_);" d="M846.4-458.4l-28.3,56.6l-20.9-51.5
		c0,0-1.2-5.1-9.2-5.1h-92.7l57.8,15.1c0,0,10.2,2.7,13.8,11.7l9.6,23.7l19.2,47.2l11,27.2l86.5-124.9H846.4z"/>
	<g>
		
			<linearGradient id="SVGID_00000162339080079422282080000012023652648346062223_" gradientUnits="userSpaceOnUse" x1="755.7582" y1="-343.9958" x2="755.7582" y2="-402.4682">
			<stop  offset="0" style="stop-color:#0D2243"/>
			<stop  offset="0.3635" style="stop-color:#183462"/>
			<stop  offset="0.7907" style="stop-color:#1B4587"/>
			<stop  offset="1" style="stop-color:#194D98"/>
		</linearGradient>
		<path style="fill:url(#SVGID_00000162339080079422282080000012023652648346062223_);" d="M734-366.4L734-366.4
			c2.7,10,10.4,18.5,21.1,21.3c8.2,2.2,16.6,0.7,23.4-3.4l-2.6-6.1c-5.4,3.7-12.3,5.1-19.1,3.2c-10.6-2.9-17.5-12.7-17.1-23.3
			c0.5-10.8,8.3-19.7,18.6-21.7l-2.6-6.1c-12.7,3.1-22.2,14.5-22.6,28l0,0c0,0.1,0,0.2,0,0.3c0,0.2,0,0.4,0,0.6
			C733.1-371.1,733.4-368.7,734-366.4z"/>
		
			<linearGradient id="SVGID_00000109742167159060190240000016161648748824401840_" gradientUnits="userSpaceOnUse" x1="745.989" y1="-317.3061" x2="745.989" y2="-418.6968">
			<stop  offset="0" style="stop-color:#0D2243"/>
			<stop  offset="0.3635" style="stop-color:#183462"/>
			<stop  offset="0.7907" style="stop-color:#1B4587"/>
			<stop  offset="1" style="stop-color:#194D98"/>
		</linearGradient>
		<path style="fill:url(#SVGID_00000109742167159060190240000016161648748824401840_);" d="M785.3-332.3l-4.8-11.3
			c-7.8,4.6-17.4,6.2-26.8,3.6c-15.5-4.2-25.8-18.2-25.9-33.6l0,0c0,0,0-0.1,0-0.1c0-16.1,10.9-29.6,25.7-33.7l-4.8-11.3
			c-4.3,1.3-8.3,3.3-11.9,5.7l-8.8-5.8l-10.7,11.6l6.4,7.2c-2.1,3.2-3.9,6.6-5.2,10.3l-9.9,0.5l-1.8,15.7l9,1.9
			c0,0.4,0.1,0.8,0.1,1.2c0,0,0,0.1,0,0.1c0.1,1.3,0.2,2.5,0.4,3.7h0c0.4,2.6,1,5.1,1.8,7.5l-7.9,7l8.4,13.4l8.6-4.3
			c2.5,2.9,5.4,5.5,8.6,7.7l-2.1,9.7l14.7,5.8l4.2-8.2c4,0.9,8.1,1.2,12.1,1.1l3.3,9.3l15.6-2.8l-0.9-10.9
			C783.6-331.4,784.4-331.8,785.3-332.3z"/>
	</g>
	<polygon class="st3" points="889.4,-362.8 803.9,-302.1 936.7,-302.1 	"/>
	<g>
		<defs>
			<polygon id="SVGID_00000015324792583936930260000006394774678454638750_" points="896.1,-368.3 946.4,-302.1 868.1,-302.1 
				846.7,-332.4 			"/>
		</defs>
		<clipPath id="SVGID_00000019639666746569923890000008537331060363669913_">
			<use xlink:href="#SVGID_00000015324792583936930260000006394774678454638750_"  style="overflow:visible;"/>
		</clipPath>
		
			<linearGradient id="SVGID_00000037653746857281635710000016541183540362001285_" gradientUnits="userSpaceOnUse" x1="795.8304" y1="-342.6644" x2="961.8289" y2="-342.6644">
			<stop  offset="0" style="stop-color:#0D2243"/>
			<stop  offset="0.3635" style="stop-color:#183462"/>
			<stop  offset="0.7907" style="stop-color:#1B4587"/>
			<stop  offset="1" style="stop-color:#194D98"/>
		</linearGradient>
		
			<path style="clip-path:url(#SVGID_00000019639666746569923890000008537331060363669913_);fill:url(#SVGID_00000037653746857281635710000016541183540362001285_);" d="
			M852.6-426.5c22.7,13.8,43,30,61.2,48.4l0,0c8.7,8.8,16.9,18.2,24.6,28.1c8.4,10.8,16.3,22.2,23.5,34.2
			c-28.6,18.7-57,37.7-85.3,57c-14.4-42.6-36.4-80.4-66.4-113.1c-4.6-5-9.3-9.8-14.3-14.6c5.2-3.6,10.3-7.1,15.5-10.7c0,0,0,0,0,0
			C825.1-406.9,838.9-416.6,852.6-426.5z M815.9-380.6c-4.8-4.6-7.2-6.9-12.2-11.3c-3.1,2.2-4.7,3.3-7.8,5.4
			c4.9,4.5,7.1,7,11.7,11.8C810.7-377,812.6-378.3,815.9-380.6z M836.1-374.9c-4.6-4.8-7-7.1-11.9-11.6c-3.3,2.4-5,3.5-8.3,5.9
			c4.8,4.6,7.3,7.3,11.8,12.2C831.1-370.9,832.6-372.4,836.1-374.9z M838.5-355.8c-4.2-5.2-6.4-7.7-10.9-12.6
			c-3.4,2.5-5.4,4-8.8,6.4c4.3,5.1,6.3,7.6,10.3,12.9C832.7-351.6,834.9-353.2,838.5-355.8z M858.2-349.4c-4.1-5.3-6.2-7.9-10.6-13
			c-3.6,2.7-5.5,4-9.1,6.6c4.2,5.2,6.4,8.1,10.4,13.6C852.7-344.9,854.3-346.6,858.2-349.4z M858.3-328.3c-3.6-5.7-5.5-8.4-9.4-13.9
			c-3.8,2.7-6,4.5-9.7,7.2c3.7,5.6,5.5,8.4,9,14.2C852-323.7,854.3-325.5,858.3-328.3z M877.5-321c-3.5-5.8-5.5-8.9-9.3-14.5
			c-4,2.9-6,4.3-9.9,7.2c3.6,5.7,5.5,8.9,8.8,14.8C871.2-316.5,873.3-318,877.5-321z M874.9-298.6c-3-6.1-4.5-9.1-7.8-15
			c-4.1,3-6.6,4.7-10.7,7.6c3.2,6.2,4.7,9.4,7.5,15.2C868.2-293.8,870.6-295.5,874.9-298.6z M893.5-290.7c-2.8-6.2-4.5-9.6-7.7-15.6
			c-4.4,3.1-6.6,4.6-10.9,7.7c3,6.1,4.5,9.5,7.2,15.8C886.6-285.9,888.9-287.5,893.5-290.7z M888.3-266.9c-2.3-6.5-3.5-9.6-6.2-15.9
			c-4.5,3.1-6.9,4.9-11.4,8c2.4,6.4,3.7,9.4,5.8,15.9C881.2-262.1,883.6-263.7,888.3-266.9z M832.5-392.5
			c-5.1-4.4-7.6-6.5-12.9-10.5c-3.2,2.3-4.8,3.4-8,5.6c5.1,4.2,7.7,6.4,12.6,10.9C827.5-388.9,829.1-390.1,832.5-392.5z
			 M853.7-387.7c-5-4.5-7.5-6.7-12.7-10.9c-3.4,2.5-5.1,3.7-8.5,6.1c5.1,4.4,7.5,6.6,12.3,11.3C848.3-383.8,850.1-385.1,853.7-387.7
			z M856.8-369c-4.5-4.9-7.1-7.6-11.9-12.2c-3.5,2.6-5.3,3.8-8.8,6.3c4.6,4.8,7.1,7.5,11.5,12.6C851.2-365,853.1-366.3,856.8-369z
			 M877.5-363.4c-4.4-5.1-6.7-7.6-11.4-12.4c-3.7,2.7-5.6,4.1-9.3,6.8c4.5,4.9,7,7.7,11.2,12.9C871.9-358.9,873.6-360.6,877.5-363.4
			z M878.3-342.8c-4-5.5-6-8.1-10.3-13.3c-3.9,2.8-6,3.9-9.8,6.7c4.1,5.3,6.3,8.3,10.1,13.9C872.2-338.4,874.2-339.9,878.3-342.8z
			 M898.5-336.4c-3.9-5.6-5.9-8.3-10-13.7c-4.1,2.9-6.1,4.4-10.2,7.3c4,5.5,5.9,8.2,9.6,13.9C892.1-331.9,894.2-333.4,898.5-336.4z
			 M896.9-314c-3.4-5.9-5.1-8.8-8.8-14.5c-4.2,3-6.3,4.5-10.5,7.5c3.5,5.8,5.1,8.7,8.3,14.7C890.2-309.4,892.4-310.9,896.9-314z
			 M916.7-306.6c-3.3-6.1-5.1-9.4-8.7-15.2c-4.5,3.1-6.7,4.7-11.1,7.8c3.4,5.9,5.1,9.3,8.2,15.4C909.7-301.8,912-303.4,916.7-306.6z
			 M912.2-283c-2.7-6.3-4.2-9.5-7.2-15.6c-4.6,3.2-6.9,4.8-11.5,7.9c2.8,6.2,4.2,9.4,6.7,15.8C905-278.2,907.4-279.8,912.2-283z
			 M849.6-404.8c-5.4-4.1-8.1-6-13.7-9.8c-3.3,2.3-4.9,3.5-8.2,5.8c5.4,3.9,8.1,5.9,13.3,10.1C844.4-401,846.1-402.3,849.6-404.8z
			 M871.7-400.8c-5.3-4.3-8-6.3-13.5-10.2c-3.5,2.5-5.2,3.8-8.7,6.3c5.4,4.1,8,6.2,13.1,10.6C866.3-396.8,868.1-398.1,871.7-400.8z
			 M875.4-382.6c-4.9-4.7-7.7-7.2-12.8-11.6c-3.6,2.6-5.4,3.9-9,6.5c5,4.5,7.6,7.1,12.4,11.9C869.8-378.5,871.7-379.9,875.4-382.6z
			 M897.3-377.8c-4.8-4.9-7.3-7.2-12.3-11.8c-3.8,2.8-5.7,4.2-9.5,6.9c4.9,4.7,7.5,7.4,12.1,12.3
			C891.5-373.2,893.3-374.9,897.3-377.8z M898.8-357.5c-4.3-5.2-6.6-7.8-11.2-12.8c-4,2.9-6.2,4-10.1,6.9c4.4,5.1,6.8,8,11,13.3
			C892.6-353,894.6-354.5,898.8-357.5z M920.2-351.8c-4.3-5.4-6.5-8.1-11-13.2c-4.2,3-6.3,4.5-10.4,7.5c4.3,5.2,6.5,7.9,10.5,13.4
			C913.6-347.1,915.8-348.7,920.2-351.8z M919.3-329.7c-3.8-5.8-5.7-8.6-9.8-14.1c-4.3,3.1-6.5,4.6-10.8,7.6
			c3.9,5.6,5.7,8.5,9.3,14.3C912.5-324.9,914.7-326.5,919.3-329.7z M940.4-322.7c-3.7-5.9-5.8-9.2-9.8-14.8
			c-4.6,3.2-6.9,4.8-11.4,7.9c3.8,5.8,5.8,9,9.2,15C933.3-317.9,935.6-319.5,940.4-322.7z M936.8-299.4c-3.1-6.2-4.8-9.3-8.2-15.3
			c-4.7,3.2-7.1,4.8-11.8,8c3.2,6.1,4.8,9.2,7.7,15.4C929.3-294.4,931.8-296.1,936.8-299.4z M866.8-417.2c-5.7-3.8-8.4-5.8-14.3-9.2
			c-3.4,2.4-5.1,3.6-8.4,6c5.7,3.6,8.5,5.5,14.1,9.4C861.7-413.6,863.3-414.7,866.8-417.2z M894.2-396.3c-4.8-4-8-6.6-13.3-10.8
			c-3.7,2.7-5.5,3.6-9.2,6.2c5.3,4.3,8.2,6.7,13.2,11.3C888.8-392.3,890.3-393.5,894.2-396.3z M919.3-372.2
			c-4.7-5.1-7.2-7.5-12.1-12.3c-4.1,2.9-5.7,4.1-9.7,7c4.8,4.9,7.1,7.4,11.7,12.5C913.4-368,915.1-369.2,919.3-372.2z M941.9-345.3
			c-4.2-5.6-6.4-8.3-10.8-13.7c-4.4,3.1-6.3,4.4-10.7,7.5c4.3,5.4,6.3,8.2,10.3,13.9C935.3-340.7,937.3-342.1,941.9-345.3z
			 M961.8-315.8c-3.6-6.1-5.7-9.1-9.6-15c-4.9,3.3-7,4.9-11.8,8.1c3.7,5.9,5.4,9,8.8,15.1C954.2-310.9,956.8-312.5,961.8-315.8z"/>
	</g>
	
		<linearGradient id="SVGID_00000104669893369142346000000012809149334604107958_" gradientUnits="userSpaceOnUse" x1="803.8639" y1="-335.1887" x2="898.3402" y2="-335.1887">
		<stop  offset="0" style="stop-color:#0D2243"/>
		<stop  offset="0.3635" style="stop-color:#183462"/>
		<stop  offset="0.7907" style="stop-color:#1B4587"/>
		<stop  offset="1" style="stop-color:#194D98"/>
	</linearGradient>
	<polygon style="fill:url(#SVGID_00000104669893369142346000000012809149334604107958_);" points="896.1,-368.3 803.9,-302.1 
		809.8,-302.1 898.3,-365.2 	"/>
	<g>
		<path class="st32" d="M768.3-222h-3.8c-0.5,0-0.6-0.2-0.5-0.5l6.2-15.6c0.2-0.4,0.6-0.5,1.2-0.5h5.2c0.7,0,1,0.2,1.2,0.5l6.2,15.6
			c0.2,0.4,0,0.5-0.5,0.5h-3.8c-0.3,0-0.5,0-0.6-0.1c-0.1-0.1-0.2-0.2-0.2-0.4l-1.1-2.9h-7.7l-1.1,2.9c-0.1,0.2-0.1,0.4-0.3,0.4
			C768.7-222,768.5-222,768.3-222z M773.9-235.6l-2.8,7.5h5.8l-2.8-7.5H773.9z"/>
		<path class="st32" d="M800.4-238.7h3.3c0.6,0,0.9,0.2,0.9,0.5v12c0,1.4-0.6,2.4-1.7,3.1c-1.1,0.7-2.7,1.1-4.8,1.1h-4.3
			c-2.1,0-3.7-0.4-4.8-1.1c-1.1-0.7-1.7-1.8-1.7-3.1v-11.9c0-0.4,0.3-0.5,0.8-0.5h3.3c0.5,0,0.8,0.2,0.8,0.5v11.8
			c0,0.6,0.2,0.9,0.5,1.2c0.4,0.2,0.9,0.4,1.7,0.4h2.7c0.8,0,1.4-0.1,1.8-0.4c0.4-0.2,0.5-0.6,0.5-1.2v-11.8
			C799.6-238.5,799.9-238.7,800.4-238.7z"/>
		<path class="st32" d="M817.3-222H814c-0.6,0-0.9-0.2-0.9-0.5v-13c0-0.2-0.1-0.3-0.4-0.3h-4.5c-0.5,0-0.8-0.2-0.8-0.5v-1.8
			c0-0.4,0.3-0.5,0.8-0.5h14.8c0.6,0,0.8,0.2,0.8,0.5v1.8c0,0.4-0.3,0.5-0.8,0.5h-4.5c-0.3,0-0.5,0.1-0.5,0.3v13
			C818.1-222.2,817.9-222,817.3-222z"/>
		<path class="st32" d="M837.4-222H833c-2.1,0-3.7-0.4-4.8-1.1c-1.1-0.7-1.7-1.8-1.7-3.1v-8.2c0-1.4,0.6-2.4,1.7-3.1
			c1.1-0.7,2.7-1.1,4.8-1.1h4.4c2.1,0,3.7,0.4,4.8,1.1c1.1,0.7,1.7,1.8,1.7,3.1v8.2c0,1.4-0.6,2.4-1.7,3.1
			C841.1-222.4,839.5-222,837.4-222z M833.8-224.8h2.8c0.8,0,1.4-0.1,1.8-0.4c0.4-0.2,0.5-0.6,0.5-1.2v-7.9c0-0.6-0.2-0.9-0.5-1.2
			c-0.4-0.2-0.9-0.4-1.8-0.4h-2.8c-0.8,0-1.4,0.1-1.8,0.4c-0.3,0.2-0.5,0.6-0.5,1.2v7.9c0,0.6,0.2,0.9,0.5,1.2
			C832.3-225,832.9-224.8,833.8-224.8z"/>
		<path class="st32" d="M861.4-222H858c-0.5,0-0.8-0.2-0.8-0.5v-15.6c0-0.4,0.3-0.5,0.8-0.5h9.6c2,0,3.6,0.4,4.8,1.1
			c1.1,0.7,1.7,1.8,1.7,3.1v2.5c0,1.4-0.6,2.4-1.7,3.1c-1.1,0.7-2.7,1.1-4.8,1.1h-4.9c-0.3,0-0.5,0.1-0.5,0.3v4.9
			C862.2-222.2,861.9-222,861.4-222z M862.6-230.6h4.2c0.8,0,1.4-0.1,1.8-0.4c0.3-0.2,0.5-0.6,0.5-1.2v-2.2c0-0.6-0.2-0.9-0.5-1.2
			c-0.3-0.2-0.9-0.4-1.8-0.4h-4.2c-0.3,0-0.4,0.1-0.4,0.3v4.7C862.2-230.7,862.4-230.6,862.6-230.6z"/>
		<path class="st32" d="M880.7-222h-3.8c-0.5,0-0.6-0.2-0.5-0.5l6.2-15.6c0.2-0.4,0.6-0.5,1.2-0.5h5.2c0.7,0,1,0.2,1.2,0.5l6.2,15.6
			c0.2,0.4,0,0.5-0.5,0.5h-3.8c-0.3,0-0.5,0-0.6-0.1c-0.1-0.1-0.2-0.2-0.2-0.4l-1.1-2.9h-7.7l-1.1,2.9c-0.1,0.2-0.1,0.4-0.3,0.4
			C881.1-222,880.9-222,880.7-222z M886.4-235.6l-2.8,7.5h5.8l-2.8-7.5H886.4z"/>
		<path class="st32" d="M904.1-222h-3.3c-0.5,0-0.8-0.2-0.8-0.5v-15.6c0-0.4,0.3-0.5,0.8-0.5h9.3c2,0,3.6,0.4,4.8,1.1
			c1.2,0.7,1.7,1.8,1.7,3.1v2c0,2-1.2,3.3-3.5,3.9v0.1l4.2,5.8c0.2,0.4,0,0.6-0.7,0.6h-3.2c-0.5,0-0.8,0-1-0.1
			c-0.2-0.1-0.4-0.2-0.5-0.4l-3.9-5.6h-2.6c-0.3,0-0.5,0.1-0.5,0.3v5.3C904.9-222.2,904.6-222,904.1-222z M905.3-230.8h3.8
			c0.8,0,1.5-0.1,1.8-0.4s0.6-0.6,0.6-1.1v-2c0-0.5-0.2-0.9-0.6-1.2c-0.4-0.2-1-0.4-1.8-0.4h-3.8c-0.3,0-0.4,0.1-0.4,0.3v4.5
			C904.9-230.9,905.1-230.8,905.3-230.8z"/>
		<path class="st32" d="M929.2-222h-3.3c-0.6,0-0.9-0.2-0.9-0.5v-13c0-0.2-0.1-0.3-0.4-0.3h-4.5c-0.5,0-0.8-0.2-0.8-0.5v-1.8
			c0-0.4,0.3-0.5,0.8-0.5H935c0.6,0,0.8,0.2,0.8,0.5v1.8c0,0.4-0.3,0.5-0.8,0.5h-4.5c-0.3,0-0.5,0.1-0.5,0.3v13
			C930-222.2,929.8-222,929.2-222z"/>
		<path class="st32" d="M938.2-226.3v-0.5c0-0.4,0.3-0.5,0.8-0.5h3.3c0.6,0,0.8,0.2,0.8,0.5v0.2c0,0.7,0.2,1.1,0.6,1.4
			c0.4,0.2,1.1,0.4,2.2,0.4h1.8c1,0,1.7-0.1,2.1-0.4c0.4-0.3,0.6-0.7,0.6-1.5v-0.3c0-0.5-0.3-0.9-0.9-1.2c-0.6-0.3-1.4-0.4-2.3-0.5
			c-0.9-0.1-1.9-0.2-3-0.3c-1.1-0.1-2-0.3-3-0.6c-0.9-0.2-1.7-0.7-2.3-1.4c-0.6-0.7-0.9-1.6-0.9-2.6v-0.9c0-1.4,0.6-2.4,1.7-3.1
			c1.2-0.7,2.7-1.1,4.8-1.1h3.9c2.1,0,3.7,0.4,4.8,1.1c1.2,0.7,1.7,1.8,1.7,3.1v0.5c0,0.4-0.3,0.5-0.8,0.5H951
			c-0.5,0-0.8-0.2-0.8-0.5v-0.2c0-0.7-0.2-1.1-0.6-1.4c-0.4-0.2-1.1-0.4-2.2-0.4h-1.5c-1.1,0-1.8,0.1-2.2,0.4
			c-0.4,0.3-0.6,0.8-0.6,1.6v0.5c0,0.8,1.1,1.3,3.2,1.4c2.2,0.1,4.2,0.4,5.9,0.9c0.9,0.3,1.7,0.7,2.3,1.4c0.6,0.7,0.9,1.5,0.9,2.6
			v0.9c0,1.4-0.6,2.4-1.7,3.1c-1.2,0.7-2.7,1.1-4.8,1.1h-4.3c-2,0-3.6-0.4-4.8-1.1C938.8-223.9,938.2-224.9,938.2-226.3z"/>
	</g>
	
		<linearGradient id="SVGID_00000031899483077574536560000014128355146183789961_" gradientUnits="userSpaceOnUse" x1="682.2794" y1="-270.3682" x2="1037.173" y2="-270.3682">
		<stop  offset="0" style="stop-color:#0D2243"/>
		<stop  offset="0.3635" style="stop-color:#183462"/>
		<stop  offset="0.7907" style="stop-color:#1B4587"/>
		<stop  offset="1" style="stop-color:#194D98"/>
	</linearGradient>
	<path style="fill:url(#SVGID_00000031899483077574536560000014128355146183789961_);" d="M706.8-251.9h-10.3c-1.1,0-1.7-0.4-2-1.2
		l-12.1-34.5c-0.4-0.9,0.2-1.3,1.6-1.3h7.4c1,0,1.7,0.4,1.9,1.2l8.2,28.3h0.3l8.2-28.3c0.2-0.8,0.8-1.2,1.9-1.2h7.4
		c1.3,0,1.8,0.4,1.6,1.3l-12.1,34.5C708.4-252.3,707.7-251.9,706.8-251.9z M754.3-251.9h-25.6c-1.1,0-1.6-0.4-1.6-1.2v-34.6
		c0-0.8,0.5-1.2,1.6-1.2h25.6c1,0,1.6,0.4,1.6,1.2v3.9c0,0.8-0.5,1.2-1.6,1.2h-16.4c-0.6,0-0.9,0.2-0.9,0.6v7.5
		c0,0.4,0.3,0.6,0.9,0.6h13.4c1.1,0,1.6,0.4,1.6,1.2v3.9c0,0.8-0.5,1.2-1.6,1.2h-13.4c-0.6,0-0.9,0.2-0.9,0.6v8
		c0,0.4,0.3,0.6,0.9,0.6h16.4c1,0,1.6,0.4,1.6,1.2v3.9C755.9-252.3,755.3-251.9,754.3-251.9z M792-251.9h-25.8
		c-1.1,0-1.6-0.4-1.6-1.2v-34.6c0-0.8,0.5-1.2,1.6-1.2h6.7c1.1,0,1.6,0.4,1.6,1.2v28.8c0,0.4,0.3,0.6,0.9,0.6H792
		c1,0,1.6,0.4,1.6,1.3v3.9C793.6-252.3,793-251.9,792-251.9z M820.7-251.9h-8.8c-4.1,0-7.3-0.8-9.6-2.4c-2.2-1.6-3.4-3.9-3.4-7
		v-18.2c0-3,1.1-5.4,3.4-7c2.2-1.6,5.4-2.4,9.6-2.4h8.8c4.1,0,7.3,0.8,9.6,2.4c2.2,1.6,3.4,3.9,3.4,7v18.2c0,3-1.1,5.4-3.4,7
		C828-252.7,824.8-251.9,820.7-251.9z M813.4-258.2h5.6c1.7,0,2.9-0.3,3.6-0.8c0.7-0.5,1.1-1.4,1.1-2.6v-17.5c0-1.2-0.4-2.1-1.1-2.6
		c-0.7-0.5-1.9-0.8-3.6-0.8h-5.6c-1.7,0-2.8,0.3-3.5,0.8c-0.7,0.5-1,1.4-1,2.6v17.5c0,1.2,0.3,2.1,1,2.6
		C810.6-258.5,811.8-258.2,813.4-258.2z M851.3-251.9h-6.7c-1.1,0-1.6-0.4-1.6-1.2v-34.6c0-0.8,0.5-1.2,1.6-1.2h6.7
		c1.1,0,1.6,0.4,1.6,1.2v16.4h0.2c0.4-0.9,1.2-2.1,2.4-3.6l11.9-12.8c0.7-0.8,1.7-1.2,3.1-1.2h7.7c0.6,0,0.9,0.1,1.1,0.4
		c0.1,0.3,0,0.6-0.4,0.9l-14.9,15.1l16.6,19.1c0.4,0.5,0.4,0.8,0.2,1.1c-0.2,0.3-0.7,0.4-1.4,0.4h-5.7c-1.8,0-3.1-0.4-3.7-1.2
		l-12-14.1l-4.9,4.3v9.8C852.9-252.3,852.4-251.9,851.3-251.9z M895-251.9h-6.7c-1.1,0-1.6-0.4-1.6-1.2v-34.6c0-0.8,0.5-1.2,1.6-1.2
		H907c4.1,0,7.3,0.8,9.6,2.5c2.3,1.6,3.4,4,3.4,7v4.5c0,4.3-2.3,7.2-7,8.6v0.2l8.4,12.8c0.5,0.9,0,1.4-1.3,1.4h-6.3
		c-0.9,0-1.6-0.1-2-0.2c-0.4-0.2-0.8-0.5-1-1l-7.8-12.4h-5.2c-0.6,0-0.9,0.2-0.9,0.6v11.8C896.6-252.3,896.1-251.9,895-251.9z
		 M897.5-271.4h7.7c1.7,0,2.9-0.3,3.7-0.8c0.8-0.5,1.2-1.4,1.2-2.5v-4.5c0-1.2-0.4-2.1-1.2-2.6c-0.8-0.5-2-0.8-3.7-0.8h-7.7
		c-0.6,0-0.9,0.2-0.9,0.6v9.9C896.6-271.6,896.9-271.4,897.5-271.4z M934.8-251.9h-7.5c-0.9,0-1.3-0.4-0.9-1.2l12.4-34.6
		c0.4-0.8,1.1-1.2,2.4-1.2h10.4c1.3,0,2.1,0.4,2.3,1.2l12.4,34.6c0.3,0.8,0,1.2-0.9,1.2h-7.5c-0.6,0-1-0.1-1.2-0.3
		c-0.2-0.2-0.4-0.5-0.5-0.9l-2.2-6.3h-15.3l-2.2,6.3c-0.1,0.5-0.3,0.8-0.5,0.9C935.7-252,935.3-251.9,934.8-251.9z M946.1-281.9
		l-5.6,16.6h11.6l-5.6-16.6H946.1z M981.5-251.9h-6.7c-1.1,0-1.6-0.4-1.6-1.2v-34.6c0-0.8,0.5-1.2,1.6-1.2h25c1,0,1.6,0.4,1.6,1.2
		v3.9c0,0.8-0.5,1.2-1.6,1.2h-15.7c-0.6,0-0.9,0.2-0.9,0.6v8.9c0,0.5,0.3,0.7,0.9,0.7h13.4c1.1,0,1.6,0.4,1.6,1.2v3.9
		c0,0.8-0.5,1.3-1.6,1.3h-13.4c-0.6,0-0.9,0.2-0.9,0.6v12.3C983.1-252.3,982.6-251.9,981.5-251.9z M1024-251.9h-6.6
		c-1.1,0-1.7-0.4-1.7-1.2v-28.8c0-0.4-0.3-0.6-0.9-0.6h-8.9c-1.1,0-1.6-0.4-1.6-1.2v-3.9c0-0.8,0.5-1.2,1.6-1.2h29.6
		c1.1,0,1.6,0.4,1.6,1.2v3.9c0,0.8-0.5,1.2-1.6,1.2h-8.9c-0.6,0-0.9,0.2-0.9,0.6v28.8C1025.7-252.3,1025.1-251.9,1024-251.9z"/>
	<g>
		<defs>
			<rect id="SVGID_00000148651202111105010220000000505982640742508686_" x="1720.8" y="-451.4" width="418.2" height="286.5"/>
		</defs>
		<clipPath id="SVGID_00000026122656024834642310000010304982314167999364_">
			<use xlink:href="#SVGID_00000148651202111105010220000000505982640742508686_"  style="overflow:visible;"/>
		</clipPath>
		
			<g transform="matrix(1 0 0 1 1.220703e-04 -3.051758e-05)" style="clip-path:url(#SVGID_00000026122656024834642310000010304982314167999364_);">
			
				<image style="overflow:visible;" width="1536" height="1024" xlink:href="../Technical Drawing.jpeg"  transform="matrix(0.3211 0 0 0.3211 1681.8071 -464.766)">
			</image>
		</g>
	</g>
	<path class="st15" d="M853.6-453.3c-2.6,0-3.9,2.9-3.9,2.9l-31.6,60l-24.8-59.7c-1.3-3.6-4.2-3.2-4.2-3.2l-68.9-1.6l62.4,11.6
		l18.2,44.2l8.9,21.5l8.4,20.3l64.7-95.9H853.6z"/>
	
		<linearGradient id="SVGID_00000043434714240643605440000007508013081581961149_" gradientUnits="userSpaceOnUse" x1="313.0316" y1="16.7086" x2="163.9762" y2="179.2092">
		<stop  offset="0" style="stop-color:#F68B20"/>
		<stop  offset="0.165" style="stop-color:#E87C23"/>
		<stop  offset="0.7257" style="stop-color:#CC5027"/>
		<stop  offset="1" style="stop-color:#C23D27"/>
	</linearGradient>
	<polygon style="fill:url(#SVGID_00000043434714240643605440000007508013081581961149_);" points="148.1,172.5 250.5,32.5 
		346.6,32.5 	"/>
	
		<linearGradient id="SVGID_00000142885413319561089910000010074156244683801491_" gradientUnits="userSpaceOnUse" x1="160.0973" y1="116.9561" x2="297.828" y2="54.5349">
		<stop  offset="0" style="stop-color:#F15B24"/>
		<stop  offset="0.162" style="stop-color:#F26824"/>
		<stop  offset="0.7232" style="stop-color:#F68E20"/>
		<stop  offset="0.9977" style="stop-color:#F89D1E"/>
	</linearGradient>
	<polygon style="fill:url(#SVGID_00000142885413319561089910000010074156244683801491_);" points="171.8,148.4 255.2,37.1 323,37.1 
			"/>
	<polygon class="st3" points="159,172.5 249.6,108.4 299.7,172.5 	"/>
	
		<linearGradient id="SVGID_00000039125553995195266250000012960939450440862366_" gradientUnits="userSpaceOnUse" x1="300.5574" y1="172.5374" x2="300.5574" y2="85.2739">
		<stop  offset="0" style="stop-color:#F15B24"/>
		<stop  offset="0.162" style="stop-color:#F26824"/>
		<stop  offset="0.7232" style="stop-color:#F68E20"/>
		<stop  offset="0.9977" style="stop-color:#F89D1E"/>
	</linearGradient>
	<polygon style="fill:url(#SVGID_00000039125553995195266250000012960939450440862366_);" points="249.6,108.4 299.7,172.5 
		351.5,172.5 282.2,85.3 	"/>
	
		<linearGradient id="SVGID_00000115516071716093417790000007850308815970183042_" gradientUnits="userSpaceOnUse" x1="78.3934" y1="98.8556" x2="158.6261" y2="98.8556">
		<stop  offset="0" style="stop-color:#F15B24"/>
		<stop  offset="0.162" style="stop-color:#F26824"/>
		<stop  offset="0.7232" style="stop-color:#F68E20"/>
		<stop  offset="0.9977" style="stop-color:#F89D1E"/>
	</linearGradient>
	<path style="fill:url(#SVGID_00000115516071716093417790000007850308815970183042_);" d="M78.4,42.8l35.6,8.4c0,0,4.7,1.1,7.3,7.3
		l37.3,89.3l-5.3,7.1l-39.5-93.9c0,0-2.1-5-7-6.7L78.4,42.8z"/>
	
		<linearGradient id="SVGID_00000016791541235158637530000008735418861436055471_" gradientUnits="userSpaceOnUse" x1="61.745" y1="88.4407" x2="271.4173" y2="88.4407">
		<stop  offset="0" style="stop-color:#0D2243"/>
		<stop  offset="0.3635" style="stop-color:#183462"/>
		<stop  offset="0.7907" style="stop-color:#1B4587"/>
		<stop  offset="1" style="stop-color:#194D98"/>
	</linearGradient>
	<path style="fill:url(#SVGID_00000016791541235158637530000008735418861436055471_);" d="M197.2,32.5l-25.4,50.7l-18.7-46.1
		c0,0-1.1-4.6-8.3-4.6h-83L113.6,46c0,0,9.1,2.5,12.4,10.5l8.6,21.2l17.2,42.3l9.9,24.3l77.5-111.9H197.2z"/>
	<g class="st0">
		
			<linearGradient id="SVGID_00000137132214877033722180000005910764864863712173_" gradientUnits="userSpaceOnUse" x1="115.9388" y1="135.0253" x2="115.9388" y2="82.6399">
			<stop  offset="0" style="stop-color:#0D2243"/>
			<stop  offset="0.3635" style="stop-color:#183462"/>
			<stop  offset="0.7907" style="stop-color:#1B4587"/>
			<stop  offset="1" style="stop-color:#194D98"/>
		</linearGradient>
		<path style="display:inline;fill:url(#SVGID_00000137132214877033722180000005910764864863712173_);" d="M96.4,115L96.4,115
			c2.4,9,9.3,16.5,18.9,19.1c7.4,2,14.9,0.7,20.9-3.1l-2.3-5.5c-4.8,3.3-11,4.5-17.1,2.9c-9.5-2.6-15.7-11.4-15.4-20.9
			c0.4-9.7,7.5-17.6,16.7-19.4l-2.3-5.5c-11.4,2.8-19.9,13-20.3,25.1l0,0c0,0.1,0,0.2,0,0.3c0,0.2,0,0.3,0,0.5
			C95.6,110.8,95.9,112.9,96.4,115z"/>
		
			<linearGradient id="SVGID_00000007409130280296884080000004610045853450861230_" gradientUnits="userSpaceOnUse" x1="107.1865" y1="158.9366" x2="107.1865" y2="68.1007">
			<stop  offset="0" style="stop-color:#0D2243"/>
			<stop  offset="0.3635" style="stop-color:#183462"/>
			<stop  offset="0.7907" style="stop-color:#1B4587"/>
			<stop  offset="1" style="stop-color:#194D98"/>
		</linearGradient>
		<path style="display:inline;fill:url(#SVGID_00000007409130280296884080000004610045853450861230_);" d="M142.4,145.5l-4.3-10.1
			c-7,4.1-15.6,5.5-24,3.2c-13.9-3.7-23.1-16.3-23.2-30.1l0,0c0,0,0-0.1,0-0.1c0-14.4,9.8-26.6,23-30.2l-4.3-10.1
			c-3.8,1.2-7.4,2.9-10.7,5.1L91,68.1l-9.6,10.4l5.8,6.5c-1.9,2.9-3.5,6-4.7,9.2l-8.8,0.4L72,108.7l8,1.7c0,0.4,0.1,0.7,0.1,1.1
			c0,0,0,0.1,0,0.1c0.1,1.1,0.2,2.3,0.4,3.4h0c0.4,2.3,0.9,4.6,1.7,6.7l-7.1,6.3l7.6,12l7.7-3.9c2.3,2.6,4.8,4.9,7.7,6.9l-1.9,8.7
			l13.2,5.2l3.8-7.3c3.6,0.8,7.3,1.1,10.8,1l3,8.3l14-2.5l-0.8-9.8C140.9,146.3,141.6,145.9,142.4,145.5z"/>
	</g>
	<polygon class="st3" points="235.7,118.2 159,172.5 278.1,172.5 	"/>
	<g>
		<defs>
			<polygon id="SVGID_00000087407121978243568020000005938111035604262062_" points="241.6,113.3 286.8,172.5 216.6,172.5 
				197.4,145.4 			"/>
		</defs>
		<clipPath id="SVGID_00000147916186747773158460000008108441638732584075_">
			<use xlink:href="#SVGID_00000087407121978243568020000005938111035604262062_"  style="overflow:visible;"/>
		</clipPath>
		
			<linearGradient id="SVGID_00000160875269277010244780000016687475038965055420_" gradientUnits="userSpaceOnUse" x1="151.8395" y1="136.2181" x2="300.5574" y2="136.2181">
			<stop  offset="0" style="stop-color:#0D2243"/>
			<stop  offset="0.3635" style="stop-color:#183462"/>
			<stop  offset="0.7907" style="stop-color:#1B4587"/>
			<stop  offset="1" style="stop-color:#194D98"/>
		</linearGradient>
		
			<path style="clip-path:url(#SVGID_00000147916186747773158460000008108441638732584075_);fill:url(#SVGID_00000160875269277010244780000016687475038965055420_);" d="
			M202.7,61.1c20.3,12.4,38.6,26.9,54.8,43.4l0,0c7.8,7.9,15.2,16.3,22.1,25.1c7.6,9.7,14.6,19.9,21,30.6
			c-25.6,16.8-51.1,33.8-76.4,51.1c-12.9-38.1-32.6-72-59.5-101.3c-4.1-4.5-8.4-8.8-12.8-13.1c4.6-3.2,9.2-6.4,13.8-9.6c0,0,0,0,0,0
			C178.1,78.7,190.4,69.9,202.7,61.1z M169.8,102.2c-4.3-4.2-6.5-6.2-11-10.1c-2.8,2-4.2,2.9-7,4.8c4.4,4.1,6.3,6.2,10.5,10.6
			C165.2,105.4,166.8,104.3,169.8,102.2z M187.9,107.3c-4.2-4.3-6.3-6.4-10.7-10.4c-3,2.1-4.5,3.2-7.4,5.3c4.3,4.2,6.5,6.6,10.6,11
			C183.4,110.9,184.8,109.6,187.9,107.3z M190.1,124.5c-3.8-4.6-5.7-6.9-9.7-11.3c-3.1,2.2-4.8,3.6-7.9,5.7
			c3.9,4.5,5.6,6.8,9.3,11.6C184.9,128.2,186.9,126.8,190.1,124.5z M207.7,130.2c-3.7-4.8-5.6-7.1-9.5-11.6
			c-3.3,2.4-4.9,3.6-8.1,5.9c3.8,4.6,5.8,7.3,9.3,12.2C202.7,134.2,204.3,132.7,207.7,130.2z M207.8,149.1
			c-3.2-5.1-4.9-7.6-8.4-12.4c-3.4,2.5-5.4,4-8.7,6.4c3.3,5,5,7.5,8,12.7C202.2,153.2,204.3,151.6,207.8,149.1z M225,155.6
			c-3.1-5.2-4.9-8-8.3-13c-3.6,2.6-5.4,3.9-8.9,6.4c3.2,5.1,4.9,8,7.9,13.2C219.4,159.6,221.3,158.3,225,155.6z M222.7,175.7
			c-2.7-5.5-4.1-8.1-7-13.4c-3.7,2.7-5.9,4.2-9.5,6.8c2.8,5.6,4.2,8.4,6.7,13.7C216.7,180,218.8,178.4,222.7,175.7z M239.4,182.8
			c-2.6-5.6-4-8.6-6.9-14c-3.9,2.8-5.9,4.1-9.8,6.9c2.7,5.5,4.1,8.5,6.4,14.2C233.2,187,235.3,185.6,239.4,182.8z M234.7,204.1
			c-2.1-5.8-3.2-8.6-5.5-14.3c-4.1,2.8-6.2,4.4-10.2,7.2c2.2,5.7,3.3,8.4,5.2,14.3C228.3,208.4,230.4,207,234.7,204.1z M184.7,91.6
			c-4.5-3.9-6.8-5.8-11.6-9.4c-2.9,2-4.3,3-7.2,5c4.6,3.8,6.9,5.7,11.3,9.8C180.2,94.8,181.7,93.7,184.7,91.6z M203.7,95.9
			c-4.4-4-6.7-6-11.4-9.8c-3.1,2.2-4.6,3.3-7.6,5.4c4.5,3.9,6.7,5.9,11,10.1C198.9,99.4,200.5,98.2,203.7,95.9z M206.4,112.6
			c-4.1-4.4-6.4-6.8-10.7-11c-3.2,2.3-4.7,3.4-7.8,5.7c4.2,4.3,6.4,6.7,10.3,11.3C201.5,116.2,203.1,115,206.4,112.6z M225,117.6
			c-4-4.6-6-6.8-10.2-11.1c-3.3,2.4-5,3.6-8.3,6.1c4.1,4.4,6.2,6.9,10.1,11.6C219.9,121.7,221.5,120.2,225,117.6z M225.7,136.1
			c-3.6-4.9-5.4-7.3-9.2-11.9c-3.5,2.5-5.4,3.5-8.8,6c3.7,4.8,5.6,7.5,9,12.4C220.3,140,222.1,138.7,225.7,136.1z M243.8,141.8
			c-3.5-5-5.3-7.5-9-12.3c-3.7,2.6-5.5,4-9.1,6.6c3.6,4.9,5.3,7.4,8.6,12.5C238.1,145.9,240,144.5,243.8,141.8z M242.3,161.9
			c-3-5.3-4.6-7.9-7.9-13c-3.8,2.7-5.7,4.1-9.4,6.7c3.1,5.2,4.6,7.8,7.5,13.2C236.4,166.1,238.4,164.7,242.3,161.9z M260.1,168.5
			c-2.9-5.4-4.6-8.4-7.8-13.6c-4,2.8-6,4.2-10,7c3,5.3,4.6,8.3,7.3,13.8C253.8,172.8,255.9,171.4,260.1,168.5z M256.1,189.6
			c-2.4-5.7-3.7-8.5-6.4-14c-4.2,2.9-6.2,4.3-10.3,7.1c2.5,5.6,3.7,8.4,6,14.1C249.6,194,251.8,192.6,256.1,189.6z M200,80.6
			c-4.8-3.6-7.3-5.4-12.2-8.8c-3,2.1-4.4,3.1-7.3,5.2c4.9,3.5,7.3,5.3,11.9,9.1C195.3,83.9,196.9,82.8,200,80.6z M219.8,84.1
			c-4.7-3.8-7.2-5.6-12.1-9.2c-3.1,2.3-4.7,3.4-7.8,5.6c4.8,3.6,7.2,5.5,11.7,9.5C214.9,87.7,216.6,86.5,219.8,84.1z M223.2,100.4
			c-4.4-4.2-6.9-6.4-11.4-10.4c-3.2,2.4-4.8,3.5-8,5.8c4.4,4,6.8,6.4,11.1,10.7C218.1,104.1,219.8,102.9,223.2,100.4z M242.7,104.8
			c-4.3-4.4-6.5-6.5-11-10.6c-3.4,2.5-5.1,3.7-8.5,6.2c4.4,4.2,6.7,6.6,10.9,11.1C237.6,108.9,239.1,107.4,242.7,104.8z
			 M244.1,122.9c-3.9-4.7-5.9-7-10-11.5c-3.5,2.6-5.5,3.6-9,6.1c4,4.6,6.1,7.1,9.8,11.9C238.5,126.9,240.3,125.6,244.1,122.9z
			 M263.2,128.1c-3.8-4.9-5.8-7.2-9.9-11.8c-3.8,2.7-5.6,4-9.3,6.7c3.9,4.7,5.8,7.1,9.4,12C257.4,132.2,259.3,130.8,263.2,128.1z
			 M262.4,147.9c-3.4-5.2-5.1-7.7-8.8-12.6c-3.9,2.7-5.8,4.1-9.7,6.8c3.5,5,5.1,7.6,8.3,12.8C256.4,152.1,258.4,150.7,262.4,147.9z
			 M281.4,154.1c-3.3-5.3-5.2-8.2-8.7-13.3c-4.1,2.8-6.2,4.3-10.2,7.1c3.4,5.2,5.2,8.1,8.3,13.5C275,158.4,277.1,157,281.4,154.1z
			 M278.1,175c-2.8-5.6-4.3-8.3-7.4-13.7c-4.3,2.9-6.4,4.3-10.6,7.2c2.9,5.4,4.3,8.2,6.9,13.8C271.4,179.4,273.7,178,278.1,175z
			 M215.5,69.4c-5.1-3.4-7.5-5.2-12.8-8.3c-3,2.2-4.5,3.3-7.5,5.4c5.1,3.2,7.6,4.9,12.6,8.4C210.9,72.7,212.3,71.7,215.5,69.4z
			 M240,88.2c-4.3-3.6-7.2-5.9-11.9-9.7c-3.3,2.4-4.9,3.2-8.2,5.6c4.7,3.8,7.3,6,11.8,10.1C235.1,91.7,236.5,90.7,240,88.2z
			 M262.5,109.7c-4.2-4.5-6.4-6.7-10.9-11c-3.6,2.6-5.1,3.7-8.7,6.3c4.3,4.4,6.4,6.6,10.5,11.2C257.1,113.5,258.7,112.4,262.5,109.7
			z M282.7,133.8c-3.7-5-5.7-7.4-9.7-12.2c-4,2.8-5.6,4-9.6,6.7c3.8,4.9,5.7,7.4,9.2,12.4C276.8,137.9,278.6,136.7,282.7,133.8z
			 M300.6,160.2c-3.2-5.5-5.1-8.2-8.6-13.4c-4.4,2.9-6.3,4.4-10.6,7.3c3.3,5.3,4.9,8,7.9,13.6C293.8,164.7,296,163.2,300.6,160.2z"
			/>
	</g>
	
		<linearGradient id="SVGID_00000093136555518572827860000003714397991358955194_" gradientUnits="userSpaceOnUse" x1="159.0367" y1="142.9156" x2="243.6779" y2="142.9156">
		<stop  offset="0" style="stop-color:#0D2243"/>
		<stop  offset="0.3635" style="stop-color:#183462"/>
		<stop  offset="0.7907" style="stop-color:#1B4587"/>
		<stop  offset="1" style="stop-color:#194D98"/>
	</linearGradient>
	<polygon style="fill:url(#SVGID_00000093136555518572827860000003714397991358955194_);" points="241.6,113.3 159,172.5 
		164.3,172.5 243.7,116 	"/>
	<g>
		<path class="st32" d="M127.1,244.3h-3.4c-0.4,0-0.6-0.2-0.4-0.5l5.6-14c0.2-0.3,0.5-0.5,1.1-0.5h4.7c0.6,0,0.9,0.2,1.1,0.5l5.6,14
			c0.1,0.3,0,0.5-0.4,0.5h-3.4c-0.3,0-0.4,0-0.5-0.1c-0.1-0.1-0.2-0.2-0.2-0.4l-1-2.6h-6.9l-1,2.6c0,0.2-0.1,0.3-0.2,0.4
			C127.5,244.3,127.4,244.3,127.1,244.3z M132.2,232.2l-2.5,6.7h5.2l-2.5-6.7H132.2z"/>
		<path class="st32" d="M156,229.4h3c0.5,0,0.8,0.2,0.8,0.5v10.7c0,1.2-0.5,2.1-1.5,2.8c-1,0.7-2.4,1-4.3,1H150
			c-1.9,0-3.3-0.3-4.3-1c-1-0.7-1.5-1.6-1.5-2.8v-10.7c0-0.3,0.2-0.5,0.7-0.5h3c0.5,0,0.7,0.2,0.7,0.5v10.5c0,0.5,0.2,0.8,0.5,1.1
			c0.3,0.2,0.8,0.3,1.6,0.3h2.4c0.8,0,1.3-0.1,1.6-0.3c0.3-0.2,0.5-0.6,0.5-1.1v-10.5C155.2,229.5,155.5,229.4,156,229.4z"/>
		<path class="st32" d="M171.1,244.3h-3c-0.5,0-0.8-0.2-0.8-0.5v-11.7c0-0.2-0.1-0.3-0.4-0.3h-4c-0.5,0-0.7-0.2-0.7-0.5v-1.6
			c0-0.3,0.2-0.5,0.7-0.5h13.3c0.5,0,0.7,0.2,0.7,0.5v1.6c0,0.3-0.2,0.5-0.7,0.5h-4c-0.3,0-0.4,0.1-0.4,0.3v11.7
			C171.8,244.2,171.6,244.3,171.1,244.3z"/>
		<path class="st32" d="M189.1,244.3h-3.9c-1.9,0-3.3-0.3-4.3-1c-1-0.7-1.5-1.6-1.5-2.8v-7.4c0-1.2,0.5-2.2,1.5-2.8
			c1-0.7,2.4-1,4.3-1h3.9c1.9,0,3.3,0.3,4.3,1c1,0.7,1.5,1.6,1.5,2.8v7.4c0,1.2-0.5,2.2-1.5,2.8C192.4,244,190.9,244.3,189.1,244.3z
			 M185.8,241.8h2.5c0.8,0,1.3-0.1,1.6-0.3c0.3-0.2,0.5-0.6,0.5-1.1v-7.1c0-0.5-0.2-0.8-0.5-1.1c-0.3-0.2-0.9-0.3-1.6-0.3h-2.5
			c-0.8,0-1.3,0.1-1.6,0.3c-0.3,0.2-0.5,0.6-0.5,1.1v7.1c0,0.5,0.2,0.8,0.5,1.1C184.6,241.7,185.1,241.8,185.8,241.8z"/>
		<path class="st32" d="M210.6,244.3h-3c-0.5,0-0.7-0.2-0.7-0.5v-14c0-0.3,0.2-0.5,0.7-0.5h8.6c1.8,0,3.2,0.3,4.3,1
			c1,0.7,1.5,1.6,1.5,2.8v2.2c0,1.2-0.5,2.1-1.5,2.8c-1,0.7-2.4,1-4.3,1h-4.4c-0.3,0-0.4,0.1-0.4,0.3v4.4
			C211.3,244.2,211.1,244.3,210.6,244.3z M211.7,236.6h3.7c0.8,0,1.3-0.1,1.6-0.3c0.3-0.2,0.5-0.6,0.5-1v-2c0-0.5-0.2-0.8-0.5-1.1
			c-0.3-0.2-0.8-0.3-1.6-0.3h-3.7c-0.3,0-0.4,0.1-0.4,0.3v4.2C211.3,236.5,211.4,236.6,211.7,236.6z"/>
		<path class="st32" d="M227.8,244.3h-3.4c-0.4,0-0.6-0.2-0.4-0.5l5.6-14c0.2-0.3,0.5-0.5,1.1-0.5h4.7c0.6,0,0.9,0.2,1.1,0.5l5.6,14
			c0.1,0.3,0,0.5-0.4,0.5h-3.4c-0.3,0-0.4,0-0.5-0.1c-0.1-0.1-0.2-0.2-0.2-0.4l-1-2.6h-6.9l-1,2.6c0,0.2-0.1,0.3-0.2,0.4
			C228.3,244.3,228.1,244.3,227.8,244.3z M233,232.2l-2.5,6.7h5.2l-2.5-6.7H233z"/>
		<path class="st32" d="M248.8,244.3h-3c-0.5,0-0.7-0.2-0.7-0.5v-14c0-0.3,0.2-0.5,0.7-0.5h8.4c1.8,0,3.3,0.3,4.3,1
			c1,0.7,1.5,1.6,1.5,2.8v1.8c0,1.8-1,2.9-3.1,3.5v0.1l3.8,5.2c0.2,0.4,0,0.6-0.6,0.6h-2.9c-0.4,0-0.7,0-0.9-0.1
			c-0.2-0.1-0.3-0.2-0.5-0.4l-3.5-5H250c-0.3,0-0.4,0.1-0.4,0.3v4.8C249.6,244.2,249.3,244.3,248.8,244.3z M250,236.4h3.4
			c0.8,0,1.3-0.1,1.7-0.3c0.4-0.2,0.5-0.5,0.5-1v-1.8c0-0.5-0.2-0.8-0.5-1c-0.4-0.2-0.9-0.3-1.7-0.3H250c-0.3,0-0.4,0.1-0.4,0.3v4
			C249.6,236.4,249.7,236.4,250,236.4z"/>
		<path class="st32" d="M271.3,244.3h-3c-0.5,0-0.8-0.2-0.8-0.5v-11.7c0-0.2-0.1-0.3-0.4-0.3h-4c-0.5,0-0.7-0.2-0.7-0.5v-1.6
			c0-0.3,0.2-0.5,0.7-0.5h13.3c0.5,0,0.7,0.2,0.7,0.5v1.6c0,0.3-0.2,0.5-0.7,0.5h-4c-0.3,0-0.4,0.1-0.4,0.3v11.7
			C272.1,244.2,271.8,244.3,271.3,244.3z"/>
		<path class="st32" d="M279.4,240.5V240c0-0.3,0.2-0.5,0.7-0.5h3c0.5,0,0.7,0.2,0.7,0.5v0.2c0,0.6,0.2,1,0.5,1.2
			c0.4,0.2,1,0.3,1.9,0.3h1.7c0.9,0,1.6-0.1,1.9-0.3c0.4-0.2,0.5-0.7,0.5-1.3v-0.3c0-0.4-0.3-0.8-0.8-1c-0.6-0.2-1.2-0.4-2.1-0.4
			c-0.8,0-1.7-0.1-2.7-0.3c-1-0.1-1.8-0.3-2.7-0.5c-0.8-0.2-1.5-0.6-2.1-1.2c-0.6-0.6-0.8-1.4-0.8-2.4v-0.8c0-1.2,0.5-2.1,1.5-2.8
			c1-0.7,2.5-1,4.3-1h3.5c1.9,0,3.3,0.3,4.3,1c1,0.7,1.5,1.6,1.5,2.8v0.4c0,0.3-0.2,0.5-0.7,0.5h-3c-0.5,0-0.7-0.2-0.7-0.5v-0.1
			c0-0.6-0.2-1-0.5-1.2c-0.4-0.2-1-0.3-1.9-0.3h-1.4c-1,0-1.6,0.1-2,0.4c-0.3,0.2-0.5,0.7-0.5,1.4v0.4c0,0.7,1,1.1,2.9,1.3
			c2,0.1,3.8,0.4,5.3,0.8c0.8,0.2,1.5,0.6,2.1,1.2c0.6,0.6,0.8,1.4,0.8,2.3v0.8c0,1.2-0.5,2.1-1.5,2.8c-1,0.7-2.5,1-4.3,1h-3.8
			c-1.8,0-3.3-0.3-4.3-1C279.9,242.7,279.4,241.7,279.4,240.5z"/>
	</g>
	
		<linearGradient id="SVGID_00000111162091328054437040000015334842040688558469_" gradientUnits="userSpaceOnUse" x1="50.1092" y1="200.9883" x2="368.0582" y2="200.9883">
		<stop  offset="0" style="stop-color:#0D2243"/>
		<stop  offset="0.3635" style="stop-color:#183462"/>
		<stop  offset="0.7907" style="stop-color:#1B4587"/>
		<stop  offset="1" style="stop-color:#194D98"/>
	</linearGradient>
	<path style="fill:url(#SVGID_00000111162091328054437040000015334842040688558469_);" d="M72,217.6h-9.2c-1,0-1.6-0.4-1.8-1.1
		l-10.9-30.9c-0.3-0.8,0.1-1.2,1.4-1.2h6.6c0.9,0,1.5,0.4,1.7,1.1l7.4,25.4h0.3l7.4-25.4c0.2-0.7,0.7-1.1,1.7-1.1h6.6
		c1.2,0,1.6,0.4,1.4,1.2l-10.9,30.9C73.5,217.2,72.9,217.6,72,217.6z M114.6,217.6H91.7c-1,0-1.5-0.4-1.5-1.1v-31
		c0-0.7,0.5-1.1,1.5-1.1h22.9c0.9,0,1.4,0.4,1.4,1.1v3.5c0,0.7-0.5,1.1-1.4,1.1H100c-0.6,0-0.8,0.2-0.8,0.6v6.7
		c0,0.4,0.3,0.6,0.8,0.6h12c1,0,1.5,0.4,1.5,1.1v3.5c0,0.7-0.5,1.1-1.5,1.1h-12c-0.6,0-0.8,0.2-0.8,0.6v7.2c0,0.4,0.3,0.6,0.8,0.6
		h14.7c0.9,0,1.4,0.4,1.4,1.1v3.5C116,217.2,115.6,217.6,114.6,217.6z M148.4,217.6h-23.1c-1,0-1.5-0.4-1.5-1.1v-31
		c0-0.7,0.5-1.1,1.5-1.1h6c1,0,1.5,0.4,1.5,1.1v25.8c0,0.4,0.3,0.6,0.8,0.6h14.8c0.9,0,1.4,0.4,1.4,1.1v3.5
		C149.8,217.2,149.3,217.6,148.4,217.6z M174.1,217.6h-7.9c-3.7,0-6.6-0.7-8.6-2.2c-2-1.4-3-3.5-3-6.2v-16.3c0-2.7,1-4.8,3-6.2
		c2-1.4,4.9-2.2,8.6-2.2h7.9c3.7,0,6.6,0.7,8.6,2.2c2,1.4,3,3.5,3,6.2v16.3c0,2.7-1,4.8-3,6.2C180.6,216.8,177.8,217.6,174.1,217.6z
		 M167.6,211.9h5c1.5,0,2.6-0.2,3.2-0.7c0.6-0.5,0.9-1.2,0.9-2.3v-15.7c0-1.1-0.3-1.9-0.9-2.3c-0.6-0.5-1.7-0.7-3.2-0.7h-5
		c-1.5,0-2.6,0.2-3.2,0.7c-0.6,0.5-0.9,1.2-0.9,2.3v15.7c0,1.1,0.3,1.9,0.9,2.3C165.1,211.7,166.1,211.9,167.6,211.9z M201.5,217.6
		h-6c-1,0-1.5-0.4-1.5-1.1v-31c0-0.7,0.5-1.1,1.5-1.1h6c1,0,1.5,0.4,1.5,1.1v14.7h0.1c0.4-0.8,1.1-1.9,2.2-3.2l10.7-11.5
		c0.6-0.7,1.5-1.1,2.7-1.1h6.9c0.5,0,0.8,0.1,0.9,0.3c0.1,0.2,0,0.5-0.4,0.9l-13.3,13.6l14.9,17.1c0.3,0.4,0.4,0.7,0.2,1
		c-0.2,0.2-0.6,0.3-1.3,0.3h-5.1c-1.6,0-2.7-0.4-3.3-1.1l-10.7-12.6l-4.4,3.8v8.8C203,217.2,202.5,217.6,201.5,217.6z M240.7,217.6
		h-6c-1,0-1.5-0.4-1.5-1.1v-31c0-0.7,0.5-1.1,1.5-1.1h16.7c3.6,0,6.5,0.7,8.6,2.2c2.1,1.5,3.1,3.6,3.1,6.2v4c0,3.9-2.1,6.5-6.2,7.7
		v0.2l7.5,11.5c0.4,0.8,0,1.2-1.2,1.2h-5.7c-0.8,0-1.5-0.1-1.8-0.2c-0.4-0.1-0.7-0.4-0.9-0.9l-7-11.1H243c-0.6,0-0.8,0.2-0.8,0.6
		v10.6C242.2,217.2,241.7,217.6,240.7,217.6z M242.9,200.1h6.9c1.5,0,2.6-0.2,3.3-0.7c0.7-0.5,1.1-1.2,1.1-2.2v-4
		c0-1.1-0.4-1.8-1.1-2.3c-0.7-0.5-1.8-0.7-3.3-0.7h-6.9c-0.5,0-0.8,0.2-0.8,0.6v8.9C242.2,199.9,242.4,200.1,242.9,200.1z
		 M276.3,217.6h-6.7c-0.8,0-1.1-0.4-0.8-1.1l11.1-31c0.3-0.7,1-1.1,2.1-1.1h9.3c1.2,0,1.9,0.4,2.1,1.1l11.1,31
		c0.3,0.7,0,1.1-0.8,1.1h-6.7c-0.5,0-0.9-0.1-1.1-0.2c-0.2-0.2-0.3-0.4-0.4-0.9l-2-5.7h-13.7l-2,5.7c-0.1,0.4-0.2,0.7-0.5,0.9
		C277.1,217.5,276.8,217.6,276.3,217.6z M286.5,190.7l-5.1,14.9h10.4l-5.1-14.9H286.5z M318.2,217.6h-6c-1,0-1.5-0.4-1.5-1.1v-31
		c0-0.7,0.5-1.1,1.5-1.1h22.4c0.9,0,1.4,0.4,1.4,1.1v3.5c0,0.7-0.5,1.1-1.4,1.1h-14.1c-0.6,0-0.8,0.2-0.8,0.6v8
		c0,0.4,0.3,0.6,0.8,0.6h12c1,0,1.5,0.4,1.5,1.1v3.5c0,0.8-0.5,1.1-1.5,1.1h-12c-0.6,0-0.8,0.2-0.8,0.6v11
		C319.6,217.2,319.1,217.6,318.2,217.6z M356.3,217.6h-5.9c-1,0-1.5-0.4-1.5-1.1v-25.8c0-0.4-0.3-0.6-0.8-0.6h-8
		c-1,0-1.5-0.4-1.5-1.1v-3.5c0-0.7,0.5-1.1,1.5-1.1h26.5c1,0,1.5,0.4,1.5,1.1v3.5c0,0.7-0.5,1.1-1.5,1.1h-8c-0.6,0-0.8,0.2-0.8,0.6
		v25.8C357.7,217.2,357.3,217.6,356.3,217.6z"/>
	<path class="st15" d="M203.6,37.1c-2.3,0-3.5,2.6-3.5,2.6l-28.3,53.7L149.6,40c-1.1-3.2-3.8-2.9-3.8-2.9l-61.7-1.4L140,46
		l16.3,39.6l7.9,19.2l7.5,18.2l58-85.9H203.6z"/>
</g>
</svg>
